<svg width="16" height="17" viewBox="0 0 16 17" fill="none" xmlns="http://www.w3.org/2000/svg">
<path d="M14.7556 16.04L9.15556 10.44C8.71111 10.7955 8.2 11.077 7.62222 11.2844C7.04444 11.4918 6.42963 11.5955 5.77778 11.5955C4.16296 11.5955 2.7963 11.0363 1.67778 9.91776C0.559259 8.79924 0 7.43257 0 5.81776C0 4.20294 0.559259 2.83627 1.67778 1.71776C2.7963 0.599237 4.16296 0.039978 5.77778 0.039978C7.39259 0.039978 8.75926 0.599237 9.87778 1.71776C10.9963 2.83627 11.5556 4.20294 11.5556 5.81776C11.5556 6.46961 11.4519 7.08442 11.2444 7.6622C11.037 8.23998 10.7556 8.75109 10.4 9.19553L16 14.7955L14.7556 16.04ZM5.77778 9.81776C6.88889 9.81776 7.83333 9.42887 8.61111 8.65109C9.38889 7.87331 9.77778 6.92887 9.77778 5.81776C9.77778 4.70665 9.38889 3.7622 8.61111 2.98442C7.83333 2.20664 6.88889 1.81776 5.77778 1.81776C4.66667 1.81776 3.72222 2.20664 2.94444 2.98442C2.16667 3.7622 1.77778 4.70665 1.77778 5.81776C1.77778 6.92887 2.16667 7.87331 2.94444 8.65109C3.72222 9.42887 4.66667 9.81776 5.77778 9.81776Z" fill="white"/>
</svg>
