<svg width="16" height="16" viewBox="0 0 16 16" fill="none" xmlns="http://www.w3.org/2000/svg">
<path d="M4.66666 14.6667C4.29999 14.6667 3.9861 14.5361 3.72499 14.275C3.46388 14.0139 3.33332 13.7 3.33332 13.3333C3.33332 12.9667 3.46388 12.6528 3.72499 12.3917C3.9861 12.1305 4.29999 12 4.66666 12C5.03332 12 5.34721 12.1305 5.60832 12.3917C5.86943 12.6528 5.99999 12.9667 5.99999 13.3333C5.99999 13.7 5.86943 14.0139 5.60832 14.275C5.34721 14.5361 5.03332 14.6667 4.66666 14.6667ZM11.3333 14.6667C10.9667 14.6667 10.6528 14.5361 10.3917 14.275C10.1305 14.0139 9.99999 13.7 9.99999 13.3333C9.99999 12.9667 10.1305 12.6528 10.3917 12.3917C10.6528 12.1305 10.9667 12 11.3333 12C11.7 12 12.0139 12.1305 12.275 12.3917C12.5361 12.6528 12.6667 12.9667 12.6667 13.3333C12.6667 13.7 12.5361 14.0139 12.275 14.275C12.0139 14.5361 11.7 14.6667 11.3333 14.6667ZM4.09999 3.99999L5.69999 7.33333H10.3667L12.2 3.99999H4.09999ZM3.46666 2.66666H13.3C13.5555 2.66666 13.75 2.78055 13.8833 3.00833C14.0167 3.23611 14.0222 3.46666 13.9 3.69999L11.5333 7.96666C11.4111 8.18888 11.2472 8.36111 11.0417 8.48333C10.8361 8.60555 10.6111 8.66666 10.3667 8.66666H5.39999L4.66666 9.99999H12.6667V11.3333H4.66666C4.16666 11.3333 3.78888 11.1139 3.53332 10.675C3.27777 10.2361 3.26666 9.79999 3.49999 9.36666L4.39999 7.73333L1.99999 2.66666H0.666656V1.33333H2.83332L3.46666 2.66666Z" fill="white"/>
</svg>
