<svg width="12" height="17" viewBox="0 0 12 17" fill="none" xmlns="http://www.w3.org/2000/svg">
<path d="M1 3.5C1 2.83696 1.26339 2.20107 1.73223 1.73223C2.20107 1.26339 2.83696 1 3.5 1H6V6H3.5C2.83696 6 2.20107 5.73661 1.73223 5.26777C1.26339 4.79893 1 4.16304 1 3.5Z" stroke="black" stroke-linecap="round" stroke-linejoin="round"/>
<path d="M6 1H8.5C8.8283 1 9.15339 1.06466 9.45671 1.1903C9.76002 1.31594 10.0356 1.50009 10.2678 1.73223C10.4999 1.96438 10.6841 2.23998 10.8097 2.54329C10.9353 2.84661 11 3.1717 11 3.5C11 3.8283 10.9353 4.15339 10.8097 4.45671C10.6841 4.76002 10.4999 5.03562 10.2678 5.26777C10.0356 5.49991 9.76002 5.68406 9.45671 5.8097C9.15339 5.93534 8.8283 6 8.5 6H6V1Z" stroke="black" stroke-linecap="round" stroke-linejoin="round"/>
<path d="M6 8.5C6 8.1717 6.06466 7.84661 6.1903 7.54329C6.31594 7.23998 6.50009 6.96438 6.73223 6.73223C6.96438 6.50009 7.23998 6.31594 7.54329 6.1903C7.84661 6.06466 8.1717 6 8.5 6C8.8283 6 9.15339 6.06466 9.45671 6.1903C9.76002 6.31594 10.0356 6.50009 10.2678 6.73223C10.4999 6.96438 10.6841 7.23998 10.8097 7.54329C10.9353 7.84661 11 8.1717 11 8.5C11 8.8283 10.9353 9.15339 10.8097 9.45671C10.6841 9.76002 10.4999 10.0356 10.2678 10.2678C10.0356 10.4999 9.76002 10.6841 9.45671 10.8097C9.15339 10.9353 8.8283 11 8.5 11C8.1717 11 7.84661 10.9353 7.54329 10.8097C7.23998 10.6841 6.96438 10.4999 6.73223 10.2678C6.50009 10.0356 6.31594 9.76002 6.1903 9.45671C6.06466 9.15339 6 8.8283 6 8.5V8.5Z" stroke="black" stroke-linecap="round" stroke-linejoin="round"/>
<path d="M1 13.5C1 12.837 1.26339 12.2011 1.73223 11.7322C2.20107 11.2634 2.83696 11 3.5 11H6V13.5C6 14.163 5.73661 14.7989 5.26777 15.2678C4.79893 15.7366 4.16304 16 3.5 16C2.83696 16 2.20107 15.7366 1.73223 15.2678C1.26339 14.7989 1 14.163 1 13.5Z" stroke="black" stroke-linecap="round" stroke-linejoin="round"/>
<path d="M1 8.5C1 7.83696 1.26339 7.20107 1.73223 6.73223C2.20107 6.26339 2.83696 6 3.5 6H6V11H3.5C2.83696 11 2.20107 10.7366 1.73223 10.2678C1.26339 9.79893 1 9.16304 1 8.5Z" stroke="black" stroke-linecap="round" stroke-linejoin="round"/>
</svg>
