<svg width="18" height="16" viewBox="0 0 18 16" fill="none" xmlns="http://www.w3.org/2000/svg">
<path d="M16.7214 9.64691L8.98505 15L1.24868 9.64691C1.14496 9.57429 1.06803 9.4723 1.02889 9.35553C0.989744 9.23875 0.990396 9.11319 1.03075 8.99679L1.91698 6.38249L3.68945 1.18847C3.70664 1.14615 3.73401 1.10825 3.76935 1.07781C3.82691 1.02776 3.90206 1 3.98001 1C4.05797 1 4.13312 1.02776 4.19068 1.07781C4.228 1.11216 4.2555 1.15501 4.27058 1.2023L6.04305 6.38249H11.927L13.6995 1.18847C13.7167 1.14615 13.7441 1.10825 13.7794 1.07781C13.837 1.02776 13.9121 1 13.9901 1C14.068 1 14.1432 1.02776 14.2007 1.07781C14.2381 1.11216 14.2656 1.15501 14.2806 1.2023L16.0531 6.39632L16.9757 8.99679C17.0124 9.11678 17.0074 9.24483 16.9616 9.36195C16.9158 9.47906 16.8316 9.57899 16.7214 9.64691V9.64691Z" stroke="black" stroke-linecap="round" stroke-linejoin="round"/>
</svg>
