<svg width="109" height="35" viewBox="0 0 109 35" fill="none" xmlns="http://www.w3.org/2000/svg">
<path d="M15.4688 5.39648L15.3516 5.71875C15.3516 5.83594 15.3711 5.95312 15.4102 6.07031C15.4688 6.1875 15.4785 6.32422 15.4395 6.48047C15.4199 6.61719 15.3516 6.75391 15.2344 6.89062C15.1172 7.02734 15 7.17383 14.8828 7.33008C14.8047 7.34961 14.7363 7.33984 14.6777 7.30078C14.6387 7.24219 14.5801 7.22266 14.502 7.24219C14.4238 7.125 14.3164 7.00781 14.1797 6.89062C14.043 6.77344 13.9648 6.57812 13.9453 6.30469C13.9258 6.03125 13.8574 5.79688 13.7402 5.60156C13.6426 5.38672 13.5742 5.23047 13.5352 5.13281C13.418 5.15234 13.0273 5.11328 12.3633 5.01562C12.168 5.07422 12.0117 5.09375 11.8945 5.07422C11.7773 5.05469 11.6992 5.04492 11.6602 5.04492C11.4648 5.04492 11.2695 5.09375 11.0742 5.19141C10.8789 5.28906 10.7129 5.30859 10.5762 5.25C10.4395 5.19141 10.2832 5.17188 10.1074 5.19141C9.95117 5.19141 9.85352 5.19141 9.81445 5.19141C9.77539 5.17188 9.73633 5.17188 9.69727 5.19141C9.56055 5.36719 9.53125 5.61133 9.60938 5.92383C9.6875 6.23633 9.7168 6.43164 9.69727 6.50977C9.67773 6.58789 9.69727 6.73438 9.75586 6.94922C9.83398 7.16406 9.84375 7.35938 9.78516 7.53516C9.74609 7.71094 9.74609 7.85742 9.78516 7.97461C9.82422 8.07227 9.82422 8.16992 9.78516 8.26758C9.74609 8.3457 9.72656 8.43359 9.72656 8.53125L9.81445 9C9.83398 9.15625 9.83398 9.30273 9.81445 9.43945C9.81445 9.55664 9.84375 9.71289 9.90234 9.9082C9.96094 10.084 9.98047 10.2109 9.96094 10.2891C9.94141 10.3477 9.93164 10.543 9.93164 10.875C9.93164 11.207 9.98047 11.7637 10.0781 12.5449L9.99023 12.9844L10.1953 15.0352L10.1367 15.709L10.1953 16.3242L10.3418 16.9688L10.4004 17.4375C10.4004 17.5352 10.3809 17.6426 10.3418 17.7598C10.3223 17.877 10.3027 18.0137 10.2832 18.1699C10.2637 18.3262 10.2637 18.5117 10.2832 18.7266C10.3223 18.9219 10.3418 19.0977 10.3418 19.2539C10.3418 19.3906 10.332 19.498 10.3125 19.5762C10.293 19.6543 10.293 19.7715 10.3125 19.9277C10.332 20.084 10.3223 20.2012 10.2832 20.2793C10.2637 20.3574 10.2539 20.4355 10.2539 20.5137L10.3418 21.4805V22.2422C10.3418 22.3789 10.3613 22.5449 10.4004 22.7402C10.5762 22.9551 10.6934 23.0527 10.752 23.0332C10.8301 22.9941 10.918 22.9746 11.0156 22.9746L11.2793 23.209C11.3574 23.1895 11.5039 23.209 11.7188 23.2676C12.2852 23.4238 12.5 23.6484 12.3633 23.9414C12.2852 24.1562 12.168 24.3516 12.0117 24.5273C11.9141 24.5664 11.8164 24.5566 11.7188 24.498C11.6406 24.459 11.5625 24.4395 11.4844 24.4395C11.2891 24.5957 11.0645 24.6641 10.8105 24.6445C10.5762 24.625 10.3516 24.625 10.1367 24.6445C9.94141 24.6836 9.78516 24.7129 9.66797 24.7324C9.55078 24.752 9.41406 24.7617 9.25781 24.7617C9.10156 24.7812 8.95508 24.7812 8.81836 24.7617C8.68164 24.7422 8.52539 24.7422 8.34961 24.7617C8.17383 24.8008 7.99805 24.8496 7.82227 24.9082C7.66602 24.9863 7.49023 25.0156 7.29492 24.9961C7.09961 24.9961 6.92383 24.9766 6.76758 24.9375C6.61133 24.8984 6.43555 24.8789 6.24023 24.8789C6.04492 24.8984 5.84961 24.9375 5.6543 24.9961C5.45898 25.0742 5.32227 25.1035 5.24414 25.084C5.16602 25.0645 5.08789 25.0156 5.00977 24.9375C4.95117 24.8594 4.88281 24.8008 4.80469 24.7617C4.84375 24.4492 4.88281 24.2246 4.92188 24.0879C5.07812 23.9902 5.25391 23.9316 5.44922 23.9121C5.64453 23.8926 5.80078 23.8633 5.91797 23.8242C6.05469 23.7852 6.17188 23.7461 6.26953 23.707C6.36719 23.668 6.47461 23.6289 6.5918 23.5898C6.70898 23.5508 6.82617 23.5215 6.94336 23.502C7.06055 23.4824 7.16797 23.4238 7.26562 23.3262C7.38281 23.2285 7.44141 23.1699 7.44141 23.1504C7.46094 23.1309 7.51953 23.0332 7.61719 22.8574C7.73438 22.6816 7.77344 22.5547 7.73438 22.4766C7.71484 22.3789 7.70508 22.2715 7.70508 22.1543L7.76367 21.8027C7.72461 21.5684 7.70508 21.2852 7.70508 20.9531C7.70508 20.6211 7.68555 20.416 7.64648 20.3379C7.62695 20.2402 7.59766 20.1523 7.55859 20.0742C7.53906 19.9766 7.54883 19.8984 7.58789 19.8398C7.62695 19.7617 7.64648 19.6738 7.64648 19.5762C7.4707 19.1855 7.38281 18.5703 7.38281 17.7305C7.38281 16.8906 7.36328 16.1973 7.32422 15.6504L7.38281 15.2109L7.32422 14.7715C7.36328 14.498 7.34375 14.293 7.26562 14.1562C7.44141 13.707 7.37305 13.2285 7.06055 12.7207C7.1582 12.623 7.19727 12.5254 7.17773 12.4277C7.1582 12.3105 7.16797 12.1445 7.20703 11.9297C7.24609 11.6953 7.24609 11.5195 7.20703 11.4023C7.16797 11.2852 7.13867 11.168 7.11914 11.0508C7.09961 10.9336 7.08984 10.8359 7.08984 10.7578C7.10938 10.6797 7.11914 10.5918 7.11914 10.4941L7.00195 10.1719L7.06055 9.79102C7.06055 9.49805 7.07031 9.3418 7.08984 9.32227C6.99219 9.12695 6.94336 8.86328 6.94336 8.53125V7.47656L6.91406 6.2168C6.91406 6.17773 6.92383 6.10938 6.94336 6.01172C6.96289 5.89453 6.96289 5.81641 6.94336 5.77734C6.92383 5.71875 6.88477 5.66992 6.82617 5.63086C6.76758 5.5918 6.75781 5.52344 6.79688 5.42578C6.66016 5.38672 6.5625 5.40625 6.50391 5.48438C6.46484 5.54297 6.38672 5.57227 6.26953 5.57227L4.89258 5.51367L4.48242 5.42578L3.33984 5.45508C3.22266 5.51367 3.11523 5.5918 3.01758 5.68945C2.93945 5.76758 2.8125 5.79688 2.63672 5.77734C2.53906 5.875 2.41211 5.96289 2.25586 6.04102C2.09961 6.09961 2.00195 6.17773 1.96289 6.27539C2.00195 6.56836 1.95313 6.7832 1.81641 6.91992C1.69922 7.03711 1.61133 7.1543 1.55273 7.27148C1.51367 7.38867 1.48438 7.52539 1.46484 7.68164C1.46484 7.81836 1.38672 7.87695 1.23047 7.85742C1.07422 7.81836 0.917969 7.79883 0.761719 7.79883C0.625 7.7793 0.566406 7.69141 0.585938 7.53516C0.488281 7.47656 0.439453 7.4375 0.439453 7.41797C0.439453 7.37891 0.46875 7.25195 0.527344 7.03711C0.585938 6.82227 0.585938 6.57812 0.527344 6.30469C0.566406 6.07031 0.566406 5.89453 0.527344 5.77734C0.507812 5.64062 0.498047 5.52344 0.498047 5.42578L0.585938 4.75195C0.585938 4.6543 0.556641 4.57617 0.498047 4.51758C0.458984 4.43945 0.488281 4.38086 0.585938 4.3418C0.46875 4.22461 0.419922 4.08789 0.439453 3.93164C0.458984 3.75586 0.419922 3.58984 0.322266 3.43359C0.478516 3.19922 0.507812 2.91602 0.410156 2.58398C0.625 2.31055 0.996094 2.24219 1.52344 2.37891C1.64062 2.57422 1.72852 2.79883 1.78711 3.05273C1.8457 3.30664 1.91406 3.57031 1.99219 3.84375C2.1875 3.98047 2.43164 4.04883 2.72461 4.04883L3.19336 3.96094C3.48633 4.01953 3.75 4.0293 3.98438 3.99023C4.23828 3.93164 4.46289 3.89258 4.6582 3.87305C4.85352 3.85352 5.06836 3.85352 5.30273 3.87305C5.53711 3.89258 5.70312 3.91211 5.80078 3.93164C5.89844 3.95117 5.99609 3.94141 6.09375 3.90234C6.26953 3.92188 6.37695 3.92188 6.41602 3.90234C6.45508 3.86328 6.50391 3.83398 6.5625 3.81445L7.11914 3.84375L7.67578 3.81445C7.79297 3.81445 8.26172 3.78516 9.08203 3.72656C9.39453 3.74609 9.69727 3.72656 9.99023 3.66797C10.3223 3.64844 10.6738 3.6582 11.0449 3.69727C11.416 3.7168 11.7676 3.72656 12.0996 3.72656C12.3145 3.66797 12.4316 3.64844 12.4512 3.66797C12.4707 3.6875 12.5195 3.69727 12.5977 3.69727C12.832 3.58008 12.998 3.52148 13.0957 3.52148C13.2129 3.52148 13.3008 3.50195 13.3594 3.46289C13.4375 3.42383 13.5352 3.375 13.6523 3.31641C13.7891 3.23828 13.8965 3.16016 13.9746 3.08203V2.90625L14.1504 2.4375C14.1309 2.39844 14.1504 2.33008 14.209 2.23242C14.2871 2.13477 14.3262 2.05664 14.3262 1.99805C14.3262 1.93945 14.375 1.80273 14.4727 1.58789C14.5898 1.35352 14.7168 1.23633 14.8535 1.23633C15.0098 1.2168 15.127 1.27539 15.2051 1.41211C15.3027 1.5293 15.4199 1.63672 15.5566 1.73438C15.5762 1.94922 15.5762 2.125 15.5566 2.26172C15.5566 2.37891 15.5566 2.53516 15.5566 2.73047L15.6152 3.05273C15.5371 3.22852 15.5078 3.3457 15.5273 3.4043C15.5664 3.44336 15.5957 3.51172 15.6152 3.60938C15.5176 3.64844 15.4785 3.7168 15.498 3.81445C15.5176 3.89258 15.5078 4.03906 15.4688 4.25391C15.4297 4.46875 15.4102 4.70312 15.4102 4.95703L15.4688 5.39648ZM23.7598 24.5566L22.5 24.498C22.4219 24.498 22.3047 24.4297 22.1484 24.293C21.9922 24.1562 21.8848 24.0977 21.8262 24.1172L21.4453 23.5605C21.3672 23.3262 21.3281 23.1016 21.3281 22.8867V22.2715C21.2305 22.2129 21.1523 22.125 21.0938 22.0078C20.7227 22.0859 20.4883 22.1738 20.3906 22.2715C20.3125 22.3691 20.2441 22.4375 20.1855 22.4766C19.8926 22.4766 19.6191 22.6035 19.3652 22.8574C19.2676 22.7793 19.1602 22.7695 19.043 22.8281C18.9258 22.8672 18.7988 22.877 18.6621 22.8574C18.5449 22.8379 18.457 22.8184 18.3984 22.7988C18.3398 22.7598 18.2617 22.7207 18.1641 22.6816C18.0469 22.7207 17.9395 22.7305 17.8418 22.7109C17.7441 22.6914 17.6172 22.6914 17.4609 22.7109C17.3438 22.5742 17.0801 22.4277 16.6699 22.2715C16.3965 22.0957 16.0938 21.9688 15.7617 21.8906C15.3711 21.3047 15.0586 20.8066 14.8242 20.3965C14.8828 20.2207 14.8926 20.0352 14.8535 19.8398C14.7949 19.5078 14.8633 19.1953 15.0586 18.9023C15.1953 18.5508 15.3711 18.2773 15.5859 18.082C15.8203 17.8672 15.9863 17.7207 16.084 17.6426C16.1816 17.5449 16.2891 17.4668 16.4062 17.4082C16.5234 17.3301 16.6309 17.2227 16.7285 17.0859C16.8457 16.9297 16.9824 16.832 17.1387 16.793C17.3145 16.7539 17.4707 16.7344 17.6074 16.7344C17.7441 16.7148 17.9004 16.6855 18.0762 16.6465C18.252 16.6074 18.3691 16.5781 18.4277 16.5586C18.6426 16.4805 18.9746 16.5293 19.4238 16.7051C19.6777 16.666 19.9023 16.666 20.0977 16.7051C20.3125 16.7246 20.5566 16.7246 20.8301 16.7051C20.9863 16.6074 21.0547 16.5 21.0352 16.3828C21.0352 16.2656 21.0352 16.1289 21.0352 15.9727C21.0352 15.8164 21.0254 15.6992 21.0059 15.6211L20.8887 15.2402C20.9277 14.7129 20.8984 14.332 20.8008 14.0977C20.8398 13.9219 20.8496 13.8242 20.8301 13.8047C20.8105 13.7852 20.8008 13.7461 20.8008 13.6875C20.8008 13.6094 20.791 13.502 20.7715 13.3652C20.752 13.2285 20.7227 13.0723 20.6836 12.8965C20.6641 12.7207 20.625 12.4668 20.5664 12.1348C20.5273 11.7832 20.4785 11.5195 20.4199 11.3438C20.3613 11.1484 20.3125 11.002 20.2734 10.9043C20.2539 10.8066 20.2246 10.709 20.1855 10.6113C20.1465 10.5137 20.1172 10.4258 20.0977 10.3477C20.0977 10.25 20.0586 10.1426 19.9805 10.0254C19.9219 9.9082 19.873 9.82031 19.834 9.76172C19.7949 9.68359 19.7363 9.61523 19.6582 9.55664C19.6191 9.49805 19.5898 9.41992 19.5703 9.32227C19.5703 9.22461 19.541 9.15625 19.4824 9.11719C19.2676 9.07812 19.0527 9.05859 18.8379 9.05859C18.6426 9.05859 18.4961 9.12695 18.3984 9.26367C18.0273 9.26367 17.7637 9.3125 17.6074 9.41016C17.5098 9.54688 17.4805 9.68359 17.5195 9.82031C17.5586 9.95703 17.5684 10.084 17.5488 10.2012C17.5293 10.2988 17.5 10.3867 17.4609 10.4648C17.4414 10.543 17.4219 10.6211 17.4023 10.6992C17.4609 10.8945 17.4805 11.0508 17.4609 11.168C17.4609 11.2852 17.5098 11.4414 17.6074 11.6367C17.7246 11.832 17.8125 11.959 17.8711 12.0176C17.9297 12.0762 18.0078 12.125 18.1055 12.1641C18.2227 12.2031 18.3105 12.2227 18.3691 12.2227C18.4473 12.2227 18.5547 12.2715 18.6914 12.3691C18.8281 12.4668 18.916 12.7012 18.9551 13.0723C18.8379 13.2676 18.6133 13.3652 18.2812 13.3652C17.9492 13.3652 17.6855 13.2969 17.4902 13.1602C17.4121 13.1602 17.3535 13.1797 17.3145 13.2188C17.2754 13.2383 17.1973 13.2383 17.0801 13.2188C16.9824 13.1797 16.8945 13.1211 16.8164 13.043C16.7578 12.9648 16.6504 12.9258 16.4941 12.9258C16.4551 12.7891 16.3867 12.6816 16.2891 12.6035C16.2109 12.5059 16.1328 12.4082 16.0547 12.3105C15.9961 12.1152 15.9473 12.0176 15.9082 12.0176C15.8887 12.0176 15.8789 12.0078 15.8789 11.9883C15.625 11.6172 15.5371 11.2363 15.6152 10.8457C15.6152 10.7676 15.6348 10.6895 15.6738 10.6113C15.7129 10.5137 15.752 10.416 15.791 10.3184C15.8301 10.2012 15.8496 10.0938 15.8496 9.99609C15.8496 9.87891 15.8691 9.78125 15.9082 9.70312C15.9473 9.60547 15.9961 9.52734 16.0547 9.46875C16.1328 9.41016 16.2109 9.35156 16.2891 9.29297C16.3672 9.21484 16.4355 9.14648 16.4941 9.08789C16.5723 9.00977 16.6602 8.95117 16.7578 8.91211C16.7969 8.81445 16.8359 8.72656 16.875 8.64844C16.9336 8.55078 16.9824 8.44336 17.0215 8.32617C17.0996 8.28711 17.168 8.25781 17.2266 8.23828C17.2852 8.21875 17.334 8.17969 17.373 8.12109C17.5488 8.14062 17.7246 8.12109 17.9004 8.0625C18.0762 7.98438 18.2422 7.94531 18.3984 7.94531C18.5742 7.94531 18.7207 7.92578 18.8379 7.88672H19.248C19.3848 7.88672 19.5117 7.90625 19.6289 7.94531C19.7461 7.98438 19.8828 7.98438 20.0391 7.94531C20.1367 7.96484 20.2344 7.99414 20.332 8.0332C20.4492 8.07227 20.5664 8.0625 20.6836 8.00391C20.7812 8.12109 20.957 8.23828 21.2109 8.35547C21.4844 8.45312 21.6895 8.61914 21.8262 8.85352C21.9824 9.08789 22.0996 9.25391 22.1777 9.35156C22.2559 9.42969 22.3242 9.53711 22.3828 9.67383C22.4414 9.79102 22.5 9.9082 22.5586 10.0254C22.6367 10.123 22.7051 10.2305 22.7637 10.3477C22.8223 10.4453 22.8906 10.5527 22.9688 10.6699C23.0469 10.7871 23.1055 10.9043 23.1445 11.0215C23.2031 11.1387 23.2812 11.2363 23.3789 11.3145C23.3203 11.5293 23.3887 11.7832 23.584 12.0762C23.6035 12.1543 23.6133 12.2227 23.6133 12.2812C23.6328 12.3398 23.6621 12.4375 23.7012 12.5742C23.7402 12.6914 23.7695 12.8672 23.7891 13.1016C23.8086 13.3164 23.8281 13.502 23.8477 13.6582C23.8867 13.7949 23.916 13.8926 23.9355 13.9512C23.9746 14.0098 24.0039 14.0977 24.0234 14.2148C24.043 14.332 24.043 14.4883 24.0234 14.6836C24.0234 14.8594 24.0332 15.0156 24.0527 15.1523C24.0723 15.2695 24.0723 15.3574 24.0527 15.416C24.0332 15.4746 24.0234 15.543 24.0234 15.6211L24.1113 16.0312C24.1113 16.1484 24.1016 16.2656 24.082 16.3828C24.0625 16.5 24.0625 16.627 24.082 16.7637C24.1016 16.9004 24.1406 17.0762 24.1992 17.291C24.2578 17.4863 24.2969 17.6816 24.3164 17.877C24.3555 18.0527 24.375 18.209 24.375 18.3457V18.7266C24.375 18.8438 24.3457 19.1953 24.2871 19.7812L24.375 20.1621C24.3359 20.377 24.3164 20.748 24.3164 21.2754L24.2578 21.627C24.2969 21.7051 24.2969 21.7832 24.2578 21.8613C24.2383 21.9395 24.2285 22.0371 24.2285 22.1543C24.2285 22.2715 24.2676 22.3789 24.3457 22.4766C24.4434 22.5742 24.4531 22.7012 24.375 22.8574C24.6484 22.9746 24.8633 23.0039 25.0195 22.9453C25.3516 22.8477 25.625 22.8281 25.8398 22.8867C26.0742 22.9453 26.2305 22.9844 26.3086 23.0039C26.4062 23.0234 26.4746 23.0527 26.5137 23.0918C26.6113 23.3262 26.6699 23.4922 26.6895 23.5898C26.7285 23.668 26.6797 23.7461 26.543 23.8242C26.4062 23.9023 26.3281 23.9902 26.3086 24.0879C25.7812 24.1855 25.3223 24.2344 24.9316 24.2344C24.541 24.2344 24.1504 24.3418 23.7598 24.5566ZM18.6328 18.0527L18.3105 17.9355C17.9785 18.1895 17.6465 18.3652 17.3145 18.4629C17.2168 18.5605 17.1582 18.6875 17.1387 18.8438C17.1191 19 17.0801 19.1855 17.0215 19.4004C16.9824 19.6152 16.9727 19.752 16.9922 19.8105C17.1094 20.0254 17.168 20.1621 17.168 20.2207C17.168 20.2793 17.1973 20.377 17.2559 20.5137C17.334 20.6504 17.3828 20.7578 17.4023 20.8359C17.5586 20.9141 17.6758 21.0117 17.7539 21.1289C17.8516 21.2461 17.959 21.3242 18.0762 21.3633C18.2129 21.4023 18.3301 21.4023 18.4277 21.3633C18.5254 21.3242 18.6133 21.3438 18.6914 21.4219C18.7695 21.4023 18.877 21.4023 19.0137 21.4219C19.1699 21.4219 19.3164 21.4121 19.4531 21.3926C19.5703 21.2754 19.707 21.2266 19.8633 21.2461C20.0195 21.2461 20.1562 21.207 20.2734 21.1289C20.5469 20.875 20.7031 20.709 20.7422 20.6309C20.8008 20.5527 20.9082 20.4746 21.0645 20.3965C21.123 19.9082 21.1523 19.4883 21.1523 19.1367C21.0352 19 20.918 18.8926 20.8008 18.8145C20.7031 18.7363 20.6348 18.5996 20.5957 18.4043C20.5176 18.3457 20.4395 18.3066 20.3613 18.2871C20.2832 18.248 20.2246 18.1895 20.1855 18.1113C20.0879 18.1113 20.0293 18.1211 20.0098 18.1406C20.0098 18.1406 19.9414 18.1113 19.8047 18.0527C19.668 17.9941 19.2773 17.9941 18.6328 18.0527ZM27.5977 4.60547V4.25391C27.5586 3.98047 27.5586 3.80469 27.5977 3.72656C27.6367 3.62891 27.666 3.53125 27.6855 3.43359C27.6465 3.14062 27.6562 2.92578 27.7148 2.78906C27.7734 2.65234 27.7832 2.50586 27.7441 2.34961C27.7051 2.29102 27.6562 2.25195 27.5977 2.23242C27.5586 2.19336 27.5195 2.14453 27.4805 2.08594C27.2656 2.06641 27.0898 2.0957 26.9531 2.17383C26.8164 2.23242 26.6602 2.28125 26.4844 2.32031C26.3867 2.28125 26.3281 2.29102 26.3086 2.34961C26.2891 2.4082 26.2402 2.45703 26.1621 2.49609C25.9473 2.63281 25.7324 2.59375 25.5176 2.37891C25.3027 2.16406 25.2441 1.98828 25.3418 1.85156C25.4199 1.71484 25.5371 1.62695 25.6934 1.58789C25.8496 1.5293 26.0156 1.48047 26.1914 1.44141C26.3867 1.38281 26.582 1.34375 26.7773 1.32422C26.9922 1.28516 27.1582 1.24609 27.2754 1.20703C27.4121 1.16797 27.5391 1.13867 27.6562 1.11914C27.793 1.09961 27.9004 1.07031 27.9785 1.03125C28.0762 0.992187 28.1543 0.953125 28.2129 0.914062C28.2715 0.875 28.3398 0.835938 28.418 0.796875C28.5156 0.757812 28.5938 0.738281 28.6523 0.738281C28.7305 0.71875 28.9648 0.640625 29.3555 0.503906C29.8047 0.328125 30.2246 0.269531 30.6152 0.328125C30.6348 0.445312 30.6738 0.552734 30.7324 0.650391C30.8887 0.865234 30.9082 1.07031 30.791 1.26562C30.6934 1.44141 30.6348 1.59766 30.6152 1.73438C30.6152 1.85156 30.5762 1.92969 30.498 1.96875C30.5371 2.33984 30.4883 2.55469 30.3516 2.61328L30.5566 4.40039C30.5176 4.47852 30.5371 4.71289 30.6152 5.10352C30.6934 5.47461 30.7324 5.81641 30.7324 6.12891C30.7129 6.73438 30.7617 7.20312 30.8789 7.53516L30.8203 8.12109C30.8203 8.21875 30.8301 8.30664 30.8496 8.38477C30.8691 8.46289 30.8984 8.59961 30.9375 8.79492C30.9766 8.99023 30.9766 9.24414 30.9375 9.55664C30.918 9.86914 30.9082 10.1816 30.9082 10.4941C31.0059 11.0215 31.0547 11.3828 31.0547 11.5781C31.0547 11.7734 31.0059 11.9395 30.9082 12.0762C30.9668 12.2324 30.9766 12.3203 30.9375 12.3398C30.918 12.3594 30.9082 12.418 30.9082 12.5156C30.9082 12.6133 30.918 12.75 30.9375 12.9258C30.957 13.082 30.9473 13.2676 30.9082 13.4824L31.0547 14.2441L30.9961 14.5664L31.1133 15.5332C31.0938 15.6895 31.0645 15.8555 31.0254 16.0312C31.0059 16.207 31.0449 16.373 31.1426 16.5293C31.084 16.666 31.0645 16.8223 31.084 16.998C31.1035 17.1543 31.084 17.3105 31.0254 17.4668C30.9668 17.6035 30.9668 17.75 31.0254 17.9062C31.1035 18.0625 31.1426 18.248 31.1426 18.4629L31.0547 19.0195C31.0352 19.2148 31.0547 19.4199 31.1133 19.6348C31.1719 19.8301 31.1523 20.0156 31.0547 20.1914C31.2305 20.6602 31.25 21.0508 31.1133 21.3633C31.2109 21.6562 31.2305 21.959 31.1719 22.2715C31.1133 22.584 31.1621 22.877 31.3184 23.1504C31.2207 23.3066 31.1719 23.502 31.1719 23.7363C31.1719 23.9707 31.1816 24.166 31.2012 24.3223C31.2793 24.7715 31.5332 24.8984 31.9629 24.7031C32.0605 24.6445 32.1387 24.5762 32.1973 24.498C32.2559 24.4395 32.3438 24.4297 32.4609 24.4688C32.6562 24.5078 32.7539 24.6738 32.7539 24.9668C32.8906 25.1035 32.9492 25.2891 32.9297 25.5234C32.8516 25.6992 32.6562 25.8066 32.3438 25.8457C32.0508 25.8848 31.8262 25.9238 31.6699 25.9629C31.5137 26.002 31.4062 26.0898 31.3477 26.2266C31.2891 26.2266 31.2402 26.207 31.2012 26.168C31.1621 26.1484 31.0938 26.1484 30.9961 26.168C30.7812 26.3047 30.6445 26.3633 30.5859 26.3438C30.4297 26.2656 30.2148 26.3438 29.9414 26.5781C29.8438 26.5391 29.7363 26.5293 29.6191 26.5488C29.502 26.5879 29.3652 26.5684 29.209 26.4902C29.0527 26.4316 28.8477 26.4316 28.5938 26.4902C28.3594 26.5684 28.1641 26.6855 28.0078 26.8418C27.793 26.8418 27.6172 26.8809 27.4805 26.959C27.3438 27.0371 27.168 27.0664 26.9531 27.0469C26.7773 26.832 26.6895 26.666 26.6895 26.5488C26.6895 26.4316 26.7285 26.3242 26.8066 26.2266C26.9043 26.1484 27.002 26.0801 27.0996 26.0215C27.2168 25.9629 27.2949 25.8848 27.334 25.7871C27.7246 25.709 28.125 25.5723 28.5352 25.377C28.5938 24.9082 28.5547 24.498 28.418 24.1465C28.3008 23.7949 28.2422 23.5898 28.2422 23.5312C28.2617 23.4727 28.2617 23.3555 28.2422 23.1797C28.2227 23.0039 28.1934 22.8086 28.1543 22.5938C28.1348 22.3789 28.1152 22.1738 28.0957 21.9785C28.0762 21.7832 28.0762 21.6074 28.0957 21.4512C28.1152 21.2949 28.1055 21.0312 28.0664 20.6602C28.0273 20.2891 28.0078 19.9766 28.0078 19.7227L27.832 18.2578V17.4082L27.7441 16.7344C27.7246 16.6367 27.7148 16.5293 27.7148 16.4121C27.7344 16.2949 27.7344 16.1777 27.7148 16.0605C27.7148 15.9238 27.7051 15.7871 27.6855 15.6504C27.6855 15.5137 27.6367 15.4062 27.5391 15.3281C27.6367 15.0938 27.6855 14.918 27.6855 14.8008L27.5977 14.2441C27.5781 14.166 27.5781 14.0879 27.5977 14.0098C27.6172 13.9121 27.627 13.8242 27.627 13.7461L27.5977 12.252C27.5977 12.0371 27.6172 11.8223 27.6562 11.6074C27.7148 11.373 27.7246 11.1289 27.6855 10.875C27.666 10.6211 27.666 10.4746 27.6855 10.4355C27.7246 10.377 27.7441 10.3086 27.7441 10.2305L27.627 9.11719L27.6855 8.50195L27.5977 7.85742C27.5781 7.79883 27.5781 7.74023 27.5977 7.68164C27.6172 7.60352 27.627 7.52539 27.627 7.44727L27.5977 6.74414C27.6172 6.5293 27.6074 6.39258 27.5684 6.33398C27.5488 6.27539 27.5488 6.17773 27.5684 6.04102C27.5879 5.9043 27.5879 5.81641 27.5684 5.77734C27.5488 5.71875 27.5488 5.54297 27.5684 5.25C27.5879 4.95703 27.5977 4.74219 27.5977 4.60547ZM42.0703 13.248C41.9531 13.6777 41.9238 14.0195 41.9824 14.2734C41.9629 14.5469 41.9141 14.7129 41.8359 14.7715C41.7773 14.8301 41.6992 14.9082 41.6016 15.0059C41.6016 15.084 41.6016 15.1719 41.6016 15.2695C41.6211 15.3477 41.6016 15.4062 41.543 15.4453C41.1719 15.4258 40.8008 15.416 40.4297 15.416C40.0781 15.3965 39.7754 15.4551 39.5215 15.5918C39.4238 15.6113 39.3555 15.6113 39.3164 15.5918C39.2773 15.5527 39.2285 15.5234 39.1699 15.5039C39.0723 15.543 38.9453 15.6113 38.7891 15.709C38.6523 15.8066 38.5156 15.8262 38.3789 15.7676C38.2422 15.709 38.0957 15.6992 37.9395 15.7383C37.373 15.9336 37.0117 16.1289 36.8555 16.3242C36.875 16.5391 36.875 16.7539 36.8555 16.9688C36.8359 17.1641 36.8457 17.3496 36.8848 17.5254L36.9434 17.9062C36.9629 17.9844 36.9531 18.0527 36.9141 18.1113C36.8945 18.1699 36.8848 18.248 36.8848 18.3457C36.8848 18.4238 36.9043 18.5215 36.9434 18.6387C37.002 18.7363 36.9922 18.834 36.9141 18.9316C36.9531 19.0293 36.9922 19.127 37.0312 19.2246C37.0703 19.3223 37.0703 19.4492 37.0312 19.6055C37.0508 19.7031 37.0801 19.7812 37.1191 19.8398C37.1582 19.8789 37.1875 19.9473 37.207 20.0449C37.2461 20.1426 37.2559 20.2695 37.2363 20.4258C37.2363 20.5625 37.2461 20.6797 37.2656 20.7773C37.3047 20.875 37.334 20.9922 37.3535 21.1289C37.3926 21.2461 37.4902 21.4023 37.6465 21.5977C37.8027 21.793 37.8516 21.9492 37.793 22.0664C37.8906 22.1641 37.9688 22.2617 38.0273 22.3594C38.1055 22.457 38.1934 22.5449 38.291 22.623C38.4668 22.6426 38.623 22.6914 38.7598 22.7695C38.916 22.8477 39.1016 22.8867 39.3164 22.8867C39.5508 22.8867 39.8145 22.7988 40.1074 22.623C40.4199 22.4277 40.625 22.3105 40.7227 22.2715C40.7812 22.2324 40.8105 22.1641 40.8105 22.0664C40.8301 21.9492 40.8691 21.8711 40.9277 21.832C40.9863 21.7734 41.0352 21.7441 41.0742 21.7441C41.1328 21.7246 41.2012 21.6953 41.2793 21.6562C41.377 21.5977 41.4648 21.5391 41.543 21.4805C41.6211 21.4023 41.7285 21.3242 41.8652 21.2461C42.002 21.168 42.1875 21.2168 42.4219 21.3926C42.4805 21.627 42.4805 21.793 42.4219 21.8906C42.3633 21.9883 42.3047 22.0859 42.2461 22.1836C42.1875 22.2812 42.1777 22.3496 42.2168 22.3887C42.2559 22.4082 42.2656 22.4668 42.2461 22.5645C42.1289 22.6816 42.0703 22.8086 42.0703 22.9453C41.9531 22.9844 41.8652 23.0625 41.8066 23.1797C41.748 23.2773 41.6602 23.3652 41.543 23.4434C41.4258 23.502 41.3086 23.541 41.1914 23.5605C41.0938 23.5605 40.9766 23.5996 40.8398 23.6777C40.7227 23.7363 40.625 23.8242 40.5469 23.9414C40.4688 24.0391 40.3418 24.1367 40.166 24.2344C40.0684 24.2148 39.9316 24.2051 39.7559 24.2051C39.4238 24.4004 39.0723 24.4688 38.7012 24.4102C38.3496 24.3711 37.9688 24.332 37.5586 24.293C37.2461 23.9805 36.8945 23.7559 36.5039 23.6191C36.3477 23.2285 36.0352 22.9746 35.5664 22.8574C35.5664 22.7402 35.5176 22.6621 35.4199 22.623C35.3418 22.584 35.3027 22.4863 35.3027 22.3301C35.2051 22.3105 35.1367 22.2617 35.0977 22.1836C35.0781 22.1055 35.0195 22.0469 34.9219 22.0078C34.9023 21.9492 34.873 21.9102 34.834 21.8906C34.8145 21.8516 34.8145 21.7832 34.834 21.6855C34.7363 21.6465 34.6582 21.5879 34.5996 21.5098C34.5605 21.4121 34.502 21.3145 34.4238 21.2168C34.2871 20.9434 34.1992 20.7578 34.1602 20.6602C34.1406 20.5625 34.082 20.3965 33.9844 20.1621C33.8867 19.9277 33.8477 19.6641 33.8672 19.3711L33.6328 18.873C33.6719 18.7754 33.6719 18.6777 33.6328 18.5801C33.6133 18.4629 33.6035 18.3457 33.6035 18.2285L33.6621 17.7891C33.6816 17.5742 33.6816 17.3496 33.6621 17.1152C33.6426 16.8613 33.6523 16.6367 33.6914 16.4414L33.7793 16.0898C33.7988 16.0117 33.7988 15.9434 33.7793 15.8848C33.7793 15.8066 33.7988 15.6992 33.8379 15.5625C33.8965 15.4062 33.9648 15.2305 34.043 15.0352C34.1211 14.8398 34.1602 14.7031 34.1602 14.625C34.1797 14.5469 34.209 14.4492 34.248 14.332C34.2871 14.2148 34.3359 14.1074 34.3945 14.0098C34.4531 13.9121 34.502 13.8145 34.541 13.7168C34.5996 13.5996 34.6289 13.502 34.6289 13.4238C34.6289 13.3262 34.668 13.2383 34.7461 13.1602C34.8438 13.0625 34.9121 12.9844 34.9512 12.9258C34.9902 12.8672 35.0293 12.8086 35.0684 12.75C35.127 12.6914 35.1758 12.6328 35.2148 12.5742C35.2539 12.3984 35.332 12.2617 35.4492 12.1641C35.5859 12.0469 35.6445 11.9102 35.625 11.7539C35.7227 11.7539 35.7812 11.7148 35.8008 11.6367C35.8203 11.5586 35.8984 11.4805 36.0352 11.4023C36.1719 11.3047 36.2598 11.2363 36.2988 11.1973C36.3379 11.1582 36.4453 11.0801 36.6211 10.9629C36.8164 10.8457 36.9629 10.6699 37.0605 10.4355C37.1582 10.5137 37.2168 10.543 37.2363 10.5234C37.2754 10.4844 37.3438 10.4355 37.4414 10.377C37.5391 10.3184 37.6172 10.2891 37.6758 10.2891C37.7344 10.2891 37.8125 10.2598 37.9102 10.2012C38.0273 10.123 38.125 10.0938 38.2031 10.1133C38.3008 10.1328 38.3887 10.1133 38.4668 10.0547C38.7402 9.97656 38.9844 9.95703 39.1992 9.99609C39.4141 10.0156 39.6289 9.99609 39.8438 9.9375C39.9414 9.97656 40.0098 10.0449 40.0488 10.1426C40.1074 10.2402 40.166 10.3184 40.2246 10.377C40.3027 10.4355 40.3711 10.4746 40.4297 10.4941C40.4883 10.5137 40.5664 10.5625 40.6641 10.6406C40.7617 10.7188 40.8301 10.7773 40.8691 10.8164C40.9082 10.8359 40.9473 10.8848 40.9863 10.9629C41.0254 11.0215 41.0742 11.0898 41.1328 11.168C41.2109 11.2266 41.2793 11.3145 41.3379 11.4316C41.416 11.5488 41.4844 11.7051 41.543 11.9004C41.6016 12.0957 41.6895 12.2812 41.8066 12.457C41.7676 12.6133 41.7773 12.7305 41.8359 12.8086C41.8555 12.9062 41.8848 12.9844 41.9238 13.043C41.9824 13.1016 42.0312 13.1699 42.0703 13.248ZM38.8184 14.5078L39.1992 14.4199C39.3555 14.3809 39.5117 14.3613 39.668 14.3613C39.8438 14.3418 40.0098 14.3027 40.166 14.2441C40.2051 13.7949 40.1562 13.4336 40.0195 13.1602C40.0781 13.0234 40.0586 12.8965 39.9609 12.7793C39.8633 12.6426 39.8242 12.4863 39.8438 12.3105C39.6289 12.0957 39.502 11.9785 39.4629 11.959C39.4629 11.8418 39.4434 11.7539 39.4043 11.6953C39.3652 11.6367 39.3262 11.5684 39.2871 11.4902C39.1895 11.4512 39.0918 11.4316 38.9941 11.4316C38.8965 11.4121 38.8184 11.373 38.7598 11.3145C38.3887 11.6855 37.9688 11.8906 37.5 11.9297C37.5195 12.1836 37.4512 12.418 37.2949 12.6328C37.2754 12.7109 37.2656 12.7891 37.2656 12.8672V13.043C37.168 13.1211 37.1191 13.248 37.1191 13.4238C37.1387 13.5801 37.0996 13.7559 37.002 13.9512C36.9043 14.127 36.875 14.3027 36.9141 14.4785C37.1875 14.5176 37.4414 14.5273 37.6758 14.5078C37.9102 14.4688 38.1348 14.4492 38.3496 14.4492L38.8184 14.5078ZM52.5 10.6992L52.2949 9.46875C52.2949 9.37109 52.3047 9.29297 52.3242 9.23438C52.3438 9.15625 52.334 9.06836 52.2949 8.9707C52.2754 8.87305 52.2461 8.76562 52.207 8.64844C52.168 8.53125 52.1484 8.3457 52.1484 8.0918C52.168 7.83789 52.1582 7.68164 52.1191 7.62305C52.0996 7.54492 52.0898 7.4668 52.0898 7.38867L52.1191 7.03711L51.9727 5.83594C52.0117 5.67969 52.0215 5.5918 52.002 5.57227C51.9824 5.55273 51.9727 5.48438 51.9727 5.36719C51.9922 5.25 52.0117 5.13281 52.0312 5.01562C52.0508 4.89844 52.041 4.80078 52.002 4.72266C51.9629 4.64453 51.875 4.58594 51.7383 4.54688C51.4453 4.48828 51.1523 4.45898 50.8594 4.45898H50.5371C50.4199 4.43945 50.293 4.42969 50.1562 4.42969C50.0391 4.42969 49.9316 4.41016 49.834 4.37109C49.7949 4.29297 49.7754 4.14648 49.7754 3.93164C49.7754 3.7168 49.7949 3.56055 49.834 3.46289C50.1465 3.26758 50.5371 3.18945 51.0059 3.22852C51.4746 3.24805 51.7578 3.25781 51.8555 3.25781L54.1699 3.22852L54.5801 3.16992L54.9316 3.25781C55.2441 3.33594 55.5469 3.3457 55.8398 3.28711C56.1328 3.20898 56.2793 3.17969 56.2793 3.19922C56.2988 3.21875 56.3281 3.22852 56.3672 3.22852L56.9238 2.99414L57.2461 3.05273L58.2422 2.90625L59.2969 3.02344L60.2051 3.11133C60.2832 3.11133 60.3516 3.10156 60.4102 3.08203C60.4688 3.04297 60.5371 3.01367 60.6152 2.99414C60.7129 2.97461 60.8203 2.97461 60.9375 2.99414C61.0547 3.01367 61.1621 3.00391 61.2598 2.96484C61.377 2.73047 61.4941 2.23242 61.6113 1.4707C61.9824 1.17773 62.2168 1.08984 62.3145 1.20703C62.4121 1.32422 62.4805 1.42188 62.5195 1.5C62.5781 1.57812 62.5977 1.64648 62.5781 1.70508C62.5781 1.74414 62.6074 1.83203 62.666 1.96875C62.7246 2.10547 62.7441 2.20312 62.7246 2.26172C62.7051 2.32031 62.6953 2.38867 62.6953 2.4668L62.8125 3.49219L62.8418 5.01562V5.83594C62.8418 6.08984 62.8516 6.25586 62.8711 6.33398C62.8125 6.41211 62.7539 6.49023 62.6953 6.56836C62.6562 6.62695 62.5879 6.67578 62.4902 6.71484C62.4121 6.8125 62.2949 6.90039 62.1387 6.97852C61.9824 7.05664 61.8555 7.01758 61.7578 6.86133C61.6211 6.8418 61.4941 6.5293 61.377 5.92383C61.2598 5.29883 61.1621 4.95703 61.084 4.89844C61.0059 4.82031 60.918 4.75195 60.8203 4.69336C60.7422 4.63477 60.6641 4.55664 60.5859 4.45898C60.3711 4.43945 60.166 4.41016 59.9707 4.37109C59.7949 4.3125 59.5996 4.3418 59.3848 4.45898C59.209 4.32227 59.0137 4.25391 58.7988 4.25391C58.584 4.25391 58.3887 4.26367 58.2129 4.2832C58.0566 4.2832 57.9102 4.2832 57.7734 4.2832C57.6562 4.26367 57.4805 4.27344 57.2461 4.3125C57.0312 4.33203 56.8945 4.36133 56.8359 4.40039C56.7773 4.43945 56.6406 4.45898 56.4258 4.45898C56.2305 4.43945 55.957 4.48828 55.6055 4.60547C55.2734 4.70312 55.0098 4.85938 54.8145 5.07422C54.834 5.28906 54.8926 5.47461 54.9902 5.63086C55.0879 5.76758 55.1367 5.96289 55.1367 6.2168C55.1367 6.4707 55.1465 6.66602 55.166 6.80273C55.1855 6.93945 55.2051 7.07617 55.2246 7.21289C55.2441 7.34961 55.2539 7.48633 55.2539 7.62305C55.2539 7.74023 55.2637 7.85742 55.2832 7.97461C55.3223 8.07227 55.3516 8.16016 55.3711 8.23828C55.4102 8.29688 55.4395 8.4043 55.459 8.56055C55.4785 8.7168 55.4883 8.94141 55.4883 9.23438C55.4883 9.52734 55.5078 9.77148 55.5469 9.9668C55.5859 10.1426 55.625 10.2695 55.6641 10.3477C55.7031 10.4258 55.7129 10.5527 55.6934 10.7285C55.6738 10.9043 55.6738 11.0215 55.6934 11.0801C55.7324 11.1191 55.752 11.1582 55.752 11.1973L55.7227 11.8418L55.8984 12.9258L55.9277 13.834C55.9277 14.3809 55.957 14.8008 56.0156 15.0938C56.0938 15.3867 56.1426 15.6211 56.1621 15.7969C56.3574 15.9141 56.4551 15.9922 56.4551 16.0312C56.4746 16.0508 56.5137 16.0703 56.5723 16.0898C56.6309 16.1094 56.6992 16.0996 56.7773 16.0605C56.8555 16.002 56.9141 16.0215 56.9531 16.1191C57.0312 16.0801 57.1094 16.0605 57.1875 16.0605C57.2656 16.0605 57.3438 16.041 57.4219 16.002C57.6953 16.0996 57.9883 16.1191 58.3008 16.0605C58.6133 15.9824 58.9355 15.9336 59.2676 15.9141C59.3848 15.8164 59.4434 15.6797 59.4434 15.5039C59.4629 15.3281 59.502 15.1719 59.5605 15.0352C59.6973 14.5859 59.8633 14.3613 60.0586 14.3613C60.2539 14.3418 60.3809 14.4297 60.4395 14.625C60.5176 14.8203 60.625 14.9766 60.7617 15.0938C60.7031 15.1914 60.6934 15.2891 60.7324 15.3867C60.7715 15.4844 60.7812 15.6309 60.7617 15.8262C60.7617 16.0215 60.7812 16.2461 60.8203 16.5C60.8789 16.7539 60.9277 17.0078 60.9668 17.2617C61.0059 17.4961 60.9766 17.6816 60.8789 17.8184C60.7812 17.9551 60.6934 18.0918 60.6152 18.2285C60.5371 18.3652 60.4785 18.4434 60.4395 18.4629C60.166 18.541 59.9805 18.5801 59.8828 18.5801C59.7852 18.5801 59.6875 18.541 59.5898 18.4629C59.5117 18.3652 59.4824 18.2578 59.502 18.1406C59.541 18.0039 59.541 17.9062 59.502 17.8477C59.4629 17.7695 59.4336 17.6719 59.4141 17.5547C59.4141 17.4375 59.3945 17.3203 59.3555 17.2031C59.0234 17.1445 58.7695 17.1641 58.5938 17.2617C58.418 17.3398 58.2812 17.3887 58.1836 17.4082L57.6855 17.3203C57.3535 17.3203 56.8555 17.4863 56.1914 17.8184C56.25 18.1699 56.2793 18.4531 56.2793 18.668V19.2539C56.2793 19.6445 56.2988 19.9082 56.3379 20.0449C56.377 20.1816 56.377 20.3379 56.3379 20.5137C56.3184 20.6699 56.3086 20.8066 56.3086 20.9238C56.3086 21.0215 56.3281 21.1484 56.3672 21.3047C56.3477 21.6367 56.3477 21.8516 56.3672 21.9492C56.4062 22.0273 56.4258 22.1348 56.4258 22.2715C56.4258 22.4082 56.416 22.5645 56.3965 22.7402C56.3965 22.8965 56.416 23.0527 56.4551 23.209C56.5527 23.3066 56.7285 23.3555 56.9824 23.3555C57.1387 23.2578 57.2363 23.2285 57.2754 23.2676C57.334 23.2871 57.4023 23.2871 57.4805 23.2676C57.5586 23.248 57.627 23.209 57.6855 23.1504C57.7637 23.0918 57.8711 23.082 58.0078 23.1211C58.1641 23.1406 58.291 23.2188 58.3887 23.3555C58.5059 23.4922 58.5449 23.6582 58.5059 23.8535C58.4473 24.0098 58.291 24.1367 58.0371 24.2344C57.9785 24.2734 57.9199 24.2734 57.8613 24.2344C57.8027 24.2148 57.5879 24.2344 57.2168 24.293C56.8652 24.3516 56.3574 24.3906 55.6934 24.4102C55.0293 24.4297 54.541 24.4492 54.2285 24.4688C53.916 24.5078 53.6816 24.5469 53.5254 24.5859C53.3887 24.6445 53.252 24.6738 53.1152 24.6738C52.998 24.6738 52.8906 24.6543 52.793 24.6152C52.7148 24.5957 52.5977 24.6055 52.4414 24.6445C52.3047 24.6836 52.1777 24.6348 52.0605 24.498C51.9629 24.3613 51.9434 24.2246 52.002 24.0879C52.0801 23.9707 52.1484 23.9121 52.207 23.9121C52.2656 23.8926 52.3242 23.8633 52.3828 23.8242C52.4414 23.7852 52.5098 23.7461 52.5879 23.707C52.6855 23.668 52.7539 23.6289 52.793 23.5898H53.3203C53.457 23.1602 53.4766 22.6133 53.3789 21.9492C53.2812 21.2656 53.2324 20.8262 53.2324 20.6309L53.2617 20.0449L53.1445 19.4883C53.1641 19.1172 53.1543 18.8242 53.1152 18.6094C53.0566 18.2969 53.0273 17.5742 53.0273 16.4414L52.7344 12.0176C52.7344 11.7246 52.7148 11.4805 52.6758 11.2852C52.5586 11.0312 52.5 10.8359 52.5 10.6992ZM70.0488 8.00391C70.2637 8.10156 70.3711 8.16992 70.3711 8.20898C70.3711 8.22852 70.4102 8.24805 70.4883 8.26758C70.5859 8.26758 70.6445 8.29688 70.6641 8.35547C70.6836 8.39453 70.7227 8.43359 70.7812 8.47266C70.8398 8.51172 70.918 8.55078 71.0156 8.58984C71.1133 8.62891 71.2109 8.69727 71.3086 8.79492C71.4062 8.89258 71.5527 9.00977 71.748 9.14648C71.9434 9.2832 72.2266 9.54688 72.5977 9.9375C72.9688 10.3281 73.1934 10.6602 73.2715 10.9336C73.3496 11.207 73.3984 11.373 73.418 11.4316C73.457 11.4902 73.4668 11.5879 73.4473 11.7246C73.4473 11.8418 73.4766 12.1055 73.5352 12.5156C73.6133 12.9258 73.5938 13.2871 73.4766 13.5996L73.2422 14.332C73.2227 14.3906 73.2129 14.459 73.2129 14.5371C73.2129 14.6152 73.1738 14.7031 73.0957 14.8008C73.0176 14.8984 72.9785 14.9668 72.9785 15.0059C72.998 15.0449 72.9688 15.123 72.8906 15.2402C72.832 15.3379 72.7832 15.3867 72.7441 15.3867C72.6855 15.4062 72.5781 15.5723 72.4219 15.8848C72.2852 16.1973 72.1387 16.3828 71.9824 16.4414C71.8262 16.4805 71.6992 16.5195 71.6016 16.5586C71.3867 16.7148 71.2012 16.9004 71.0449 17.1152C70.8887 17.3105 70.7227 17.4668 70.5469 17.584C70.3711 17.6816 70.1953 17.7598 70.0195 17.8184C69.8633 17.877 69.7266 17.9648 69.6094 18.082C69.4922 18.043 69.3848 18.0527 69.2871 18.1113C69.209 18.1699 69.1309 18.2188 69.0527 18.2578C68.9746 18.2773 68.9062 18.2871 68.8477 18.2871C68.8086 18.2871 68.7402 18.3066 68.6426 18.3457C68.1152 18.5801 67.6562 18.6191 67.2656 18.4629C67.1875 18.4238 67.0801 18.3945 66.9434 18.375C66.8262 18.3359 66.6309 18.2773 66.3574 18.1992C66.1035 18.1016 65.8984 17.9746 65.7422 17.8184C65.6055 17.6426 65.4688 17.5352 65.332 17.4961C65.2539 17.2812 65.127 17.125 64.9512 17.0273C64.7949 16.9102 64.6387 16.7734 64.4824 16.6172C64.3457 16.4219 64.2773 16.3145 64.2773 16.2949C64.2773 16.2559 64.2578 16.2168 64.2188 16.1777C64.1797 16.1191 64.1113 16.041 64.0137 15.9434C63.9355 15.8457 63.8477 15.7285 63.75 15.5918C63.6719 15.4551 63.5547 15.3184 63.3984 15.1816C63.2617 15.0254 63.2031 14.8496 63.2227 14.6543C63.2617 14.4395 63.2617 14.2344 63.2227 14.0391C63.1836 13.8438 63.1445 13.668 63.1055 13.5117C63.0664 13.3555 63.0566 13.1992 63.0762 13.043C63.1152 12.8867 63.1348 12.7793 63.1348 12.7207C63.1348 12.6621 63.1641 12.5352 63.2227 12.3398C63.3008 12.1445 63.3594 12.0176 63.3984 11.959C63.4375 11.9004 63.4766 11.793 63.5156 11.6367C63.5742 11.4609 63.6133 11.373 63.6328 11.373C63.6719 11.3535 63.6914 11.3242 63.6914 11.2852C63.7109 11.2461 63.7305 11.1875 63.75 11.1094C63.7695 11.0117 63.8867 10.8262 64.1016 10.5527C64.3359 10.2598 64.502 10.0742 64.5996 9.99609C64.7168 9.91797 64.7754 9.82031 64.7754 9.70312C64.9902 9.56641 65.0977 9.47852 65.0977 9.43945C65.0977 9.40039 65.1367 9.35156 65.2148 9.29297C65.293 9.21484 65.4102 9.13672 65.5664 9.05859C65.7422 8.98047 65.8789 8.85352 65.9766 8.67773C66.1328 8.6582 66.2598 8.60938 66.3574 8.53125C66.4746 8.43359 66.6602 8.30664 66.9141 8.15039C67.1875 7.99414 67.5293 7.91602 67.9395 7.91602C68.3691 7.91602 68.7012 7.92578 68.9355 7.94531C69.1895 7.96484 69.3945 7.99414 69.5508 8.0332C69.7266 8.05273 69.8926 8.04297 70.0488 8.00391ZM71.2793 11.7539V11.2852C71.123 11.1289 70.9668 10.8945 70.8105 10.582C70.7324 10.543 70.6641 10.5039 70.6055 10.4648C70.5664 10.4258 70.5176 10.3867 70.459 10.3477C70.4199 10.3086 70.3809 10.2598 70.3418 10.2012C70.3223 10.1426 70.293 10.0938 70.2539 10.0547C70.1758 10.0352 70.0684 10.0059 69.9316 9.9668C69.7949 9.92773 69.6777 9.91797 69.5801 9.9375C69.4629 9.9375 69.3066 9.88867 69.1113 9.79102C68.9355 9.67383 68.6914 9.64453 68.3789 9.70312C68.0859 9.76172 67.8809 9.82031 67.7637 9.87891C67.666 9.9375 67.5195 9.95703 67.3242 9.9375C67.207 10.0547 67.0898 10.1914 66.9727 10.3477C66.8555 10.5039 66.7676 10.6016 66.709 10.6406C66.6699 10.6797 66.6113 10.7676 66.5332 10.9043C66.4746 11.041 66.4062 11.1484 66.3281 11.2266C66.2305 11.3242 66.1914 11.4316 66.2109 11.5488C66.2305 11.6465 66.2109 11.7539 66.1523 11.8711C65.8398 12.5742 65.8496 13.3945 66.1816 14.332C66.2598 14.5469 66.2988 14.7715 66.2988 15.0059C66.416 15.1426 66.5039 15.2891 66.5625 15.4453C66.6211 15.582 66.6895 15.7285 66.7676 15.8848C66.8457 16.041 66.9336 16.168 67.0312 16.2656C67.1289 16.3633 67.2266 16.4805 67.3242 16.6172C67.5977 16.7344 67.8125 16.793 67.9688 16.793C68.125 16.7734 68.3398 16.7148 68.6133 16.6172C68.8477 16.4805 68.9941 16.4219 69.0527 16.4414C69.1113 16.4414 69.1602 16.4316 69.1992 16.4121C69.2383 16.373 69.2969 16.3145 69.375 16.2363C69.4727 16.1582 69.5508 16.1191 69.6094 16.1191C69.668 16.1191 69.7461 16.0898 69.8438 16.0312C69.9414 15.9531 70.0391 15.8457 70.1367 15.709C70.2539 15.5723 70.3809 15.4844 70.5176 15.4453C70.5566 15.3867 70.5762 15.3281 70.5762 15.2695C70.5957 15.1914 70.6152 15.123 70.6348 15.0645C70.8105 14.9668 70.9375 14.8301 71.0156 14.6543C71.1133 14.4785 71.2402 14.3125 71.3965 14.1562C71.3965 14.0586 71.377 13.9512 71.3379 13.834C71.3184 13.7168 71.3281 13.5898 71.3672 13.4531C71.4258 13.2969 71.4453 13.209 71.4258 13.1895C71.4258 13.1504 71.4258 13.0527 71.4258 12.8965C71.4453 12.7207 71.4746 12.5938 71.5137 12.5156C71.5723 12.4375 71.582 12.3496 71.543 12.252C71.5234 12.1348 71.4746 12.0469 71.3965 11.9883C71.3379 11.9297 71.2988 11.8516 71.2793 11.7539ZM76.4648 11.168L76.4062 10.7871C76.3867 10.5723 76.4062 10.377 76.4648 10.2012C76.5234 10.0254 76.4551 9.85938 76.2598 9.70312C76.1621 9.70312 76.0254 9.74219 75.8496 9.82031C75.6934 9.87891 75.5566 9.89844 75.4395 9.87891C75.3418 9.83984 75.2441 9.81055 75.1465 9.79102C75.0684 9.77148 74.9902 9.77148 74.9121 9.79102C74.834 9.79102 74.7656 9.71289 74.707 9.55664C74.6484 9.40039 74.6777 9.21484 74.7949 9C74.9121 8.78516 75.0586 8.6582 75.2344 8.61914C75.4102 8.56055 75.6445 8.53125 75.9375 8.53125C76.2305 8.51172 76.4355 8.47266 76.5527 8.41406C76.6895 8.33594 76.7773 8.27734 76.8164 8.23828C76.875 8.17969 76.9336 8.13086 76.9922 8.0918C77.2852 8.01367 77.4707 7.98438 77.5488 8.00391C77.627 8.00391 77.6953 7.95508 77.7539 7.85742C78.1055 7.83789 78.3496 7.92578 78.4863 8.12109C78.623 8.31641 78.7793 8.50195 78.9551 8.67773C78.916 8.83398 78.9355 8.9707 79.0137 9.08789C79.1113 9.20508 79.1797 9.35156 79.2188 9.52734C79.2773 9.68359 79.2969 9.81055 79.2773 9.9082C79.2578 10.0059 79.3164 10.123 79.4531 10.2598C79.7656 10.2793 79.9902 10.1816 80.127 9.9668C80.2832 9.75195 80.4395 9.55664 80.5957 9.38086C80.7129 9.30273 80.8301 9.22461 80.9473 9.14648C81.0645 9.06836 81.1523 9.01953 81.2109 9C81.2891 8.98047 81.377 8.95117 81.4746 8.91211C81.5527 8.83398 81.6016 8.75586 81.6211 8.67773C81.6602 8.58008 81.6992 8.52148 81.7383 8.50195C81.7773 8.46289 81.8945 8.4043 82.0898 8.32617C82.2852 8.24805 82.373 8.15039 82.3535 8.0332C82.666 8.07227 83.0078 8.0625 83.3789 8.00391C83.7695 7.94531 84.0527 7.92578 84.2285 7.94531C84.4043 7.94531 84.6094 7.91602 84.8438 7.85742C84.9609 7.89648 85.0684 7.96484 85.166 8.0625C85.2637 8.14062 85.3711 8.21875 85.4883 8.29688C85.625 8.375 85.6934 8.47266 85.6934 8.58984C85.7129 8.6875 85.7715 8.80469 85.8691 8.94141C85.9863 9.07812 86.1035 9.23438 86.2207 9.41016C86.3184 9.68359 86.3965 9.91797 86.4551 10.1133C86.5332 10.2891 86.5625 10.4941 86.543 10.7285C86.543 10.9434 86.5137 11.1387 86.4551 11.3145C86.3965 11.4902 86.3379 11.6758 86.2793 11.8711C86.084 12.0078 85.9766 12.1641 85.957 12.3398C85.7031 12.5156 85.5176 12.6816 85.4004 12.8379C85.3027 12.9941 85.2051 13.0918 85.1074 13.1309C85.0293 13.1699 84.9121 13.1797 84.7559 13.1602C84.6191 13.1406 84.4824 13.1309 84.3457 13.1309C84.209 13.1309 84.0625 13.0918 83.9062 13.0137C83.75 12.9355 83.5645 12.877 83.3496 12.8379C83.3105 12.7988 83.2812 12.7598 83.2617 12.7207C83.2422 12.6621 83.2129 12.6133 83.1738 12.5742C83.1348 12.5156 83.0762 12.4668 82.998 12.4277C82.9395 12.3887 82.8809 12.3203 82.8223 12.2227C82.5879 11.8516 82.5781 11.5488 82.793 11.3145C83.1445 11.1973 83.4082 11.1094 83.584 11.0508C83.7598 10.9727 83.8965 11.0703 83.9941 11.3438C84.1699 11.3438 84.3262 11.2949 84.4629 11.1973C84.5215 10.9824 84.5703 10.8555 84.6094 10.8164C84.668 10.7773 84.6973 10.6992 84.6973 10.582C84.6973 10.4453 84.707 10.3672 84.7266 10.3477L84.5801 9.84961C84.502 9.73242 84.4531 9.67383 84.4336 9.67383C84.4336 9.6543 84.375 9.57617 84.2578 9.43945C84.1602 9.30273 84.0723 9.22461 83.9941 9.20508C83.8574 9.16602 83.6914 9.20508 83.4961 9.32227C83.3008 9.41992 83.0859 9.44922 82.8516 9.41016C82.7344 9.44922 82.6367 9.54688 82.5586 9.70312C82.4805 9.85938 82.3633 9.94727 82.207 9.9668C81.6797 10.4355 81.2988 10.7578 81.0645 10.9336C81.084 11.0117 81.0449 11.0801 80.9473 11.1387C80.8496 11.1777 80.7715 11.2461 80.7129 11.3438C80.6738 11.4414 80.6445 11.5195 80.625 11.5781C80.625 11.6367 80.5957 11.7148 80.5371 11.8125C80.4785 11.8906 80.4395 11.959 80.4199 12.0176C80.4199 12.0566 80.4004 12.1055 80.3613 12.1641C80.3223 12.2031 80.3027 12.291 80.3027 12.4277C80.3027 12.5449 80.2832 12.6523 80.2441 12.75C80.127 12.9062 80.0684 13.0234 80.0684 13.1016C80.0879 13.1602 80.0781 13.2188 80.0391 13.2773C80 13.3164 79.9512 13.3555 79.8926 13.3945C79.8535 13.4141 79.8242 13.4629 79.8047 13.541C79.9023 13.6777 79.9121 13.7949 79.834 13.8926C79.7754 13.9902 79.7852 14.127 79.8633 14.3027C79.9414 14.4004 79.9707 14.5078 79.9512 14.625C79.9512 14.7422 79.9609 14.8691 79.9805 15.0059C80 15.1426 80.0098 15.2891 80.0098 15.4453C80.0098 15.582 80.0195 15.7773 80.0391 16.0312C80 16.1484 80 16.2363 80.0391 16.2949C80.0977 16.3535 80.127 16.4414 80.127 16.5586V16.9688C80.127 17.0859 80.1367 17.2324 80.1562 17.4082C80.1953 17.5645 80.2051 17.7012 80.1855 17.8184C80.1855 17.9355 80.1953 18.082 80.2148 18.2578C80.2539 18.4336 80.2637 18.5312 80.2441 18.5508C80.2246 18.5703 80.2246 18.6094 80.2441 18.668C80.2637 18.7266 80.2832 18.7949 80.3027 18.873C80.3418 18.9316 80.3613 18.9902 80.3613 19.0488L80.3027 19.3711L80.3613 19.752C80.3613 20.0254 80.3906 20.2598 80.4492 20.4551C80.5078 20.6309 80.5176 20.8555 80.4785 21.1289C80.498 21.1875 80.5273 21.2754 80.5664 21.3926C80.625 21.5098 80.6738 21.6367 80.7129 21.7734C80.752 21.9102 81.0352 21.9785 81.5625 21.9785L82.5586 21.9199C82.6367 22.0566 82.6953 22.2422 82.7344 22.4766C82.7734 22.6914 82.7539 22.8672 82.6758 23.0039L81.5039 23.1797C81.3477 23.2188 81.1914 23.248 81.0352 23.2676C80.8789 23.2676 80.7324 23.3555 80.5957 23.5312C80.0293 23.5703 79.6777 23.6289 79.541 23.707C79.4043 23.7852 79.2676 23.8047 79.1309 23.7656C79.0137 23.707 78.9062 23.6973 78.8086 23.7363C78.7109 23.7559 78.6328 23.7852 78.5742 23.8242C78.3984 23.9414 78.1836 23.9805 77.9297 23.9414C77.6758 23.8828 77.4707 23.9121 77.3145 24.0293C77.1777 24.1465 77.0605 24.2246 76.9629 24.2637C76.416 24.166 76.1035 24.1562 76.0254 24.2344C75.8105 24.4492 75.5664 24.459 75.293 24.2637C75.2344 23.5996 75.3809 23.1602 75.7324 22.9453C75.8496 22.8867 76.0059 22.8477 76.2012 22.8281C76.416 22.8086 76.5625 22.75 76.6406 22.6523C76.7578 22.6523 76.8555 22.623 76.9336 22.5645C77.0117 22.5059 77.0996 22.457 77.1973 22.418C77.1387 21.832 77.1094 21.3438 77.1094 20.9531C77.1094 20.5625 77.0898 20.2695 77.0508 20.0742C77.0312 19.8789 77.0117 19.6934 76.9922 19.5176C76.9727 19.3223 76.9531 19.0391 76.9336 18.668C76.9336 18.2773 76.9238 17.9453 76.9043 17.6719C76.8848 17.3789 76.8457 17.1348 76.7871 16.9395C76.748 16.7246 76.7188 16.4414 76.6992 16.0898C76.6797 15.7383 76.6406 15.3379 76.582 14.8887L76.5234 14.4492C76.5039 14.3516 76.5039 14.2637 76.5234 14.1855C76.5625 14.1074 76.582 14.0488 76.582 14.0098C76.582 13.9512 76.5625 13.5703 76.5234 12.8672C76.4844 12.1445 76.4746 11.7246 76.4941 11.6074C76.5137 11.4707 76.5039 11.3242 76.4648 11.168ZM88.9746 21.3633L90.1172 21.0117L90.6152 21.0703L91.1719 21.041C91.3672 21.041 91.5625 21.0703 91.7578 21.1289C91.9531 21.168 92.1387 21.1387 92.3145 21.041C92.5098 21.1387 92.666 21.1875 92.7832 21.1875C92.9199 21.1875 93.1445 21.207 93.457 21.2461C93.6133 21.168 93.6914 21.0215 93.6914 20.8066C93.6914 20.5723 93.6523 20.4062 93.5742 20.3086C93.5156 20.1914 93.5059 20.1035 93.5449 20.0449C93.584 19.9668 93.6035 19.9082 93.6035 19.8691C93.5254 19.6348 93.4863 19.498 93.4863 19.459C93.5059 19.4004 93.5059 19.3418 93.4863 19.2832C93.4668 19.2246 93.4375 19.1562 93.3984 19.0781C93.3789 19 93.3496 18.9023 93.3105 18.7852C93.291 18.6484 93.3105 18.5215 93.3691 18.4043C93.4277 18.2871 93.4277 18.1504 93.3691 17.9941C93.3105 17.916 93.2324 17.8672 93.1348 17.8477C93.0371 17.8086 92.998 17.7207 93.0176 17.584C92.6855 17.6426 92.3535 17.6523 92.0215 17.6133C91.6895 17.5547 91.4355 17.5254 91.2598 17.5254C91.084 17.5254 90.9082 17.5547 90.7324 17.6133C90.4785 17.4766 90.293 17.418 90.1758 17.4375C90.0586 17.4375 89.9805 17.3594 89.9414 17.2031C89.7461 17.2031 89.5801 17.1152 89.4434 16.9395C89.3262 16.7441 89.209 16.5977 89.0918 16.5C88.7207 16.2852 88.4668 16.1094 88.3301 15.9727C88.3691 15.8164 88.3496 15.6504 88.2715 15.4746C88.1934 15.2793 88.1348 15.1328 88.0957 15.0352C88.0566 14.918 88.0273 14.8008 88.0078 14.6836C87.9883 14.5664 87.9297 14.459 87.832 14.3613L87.6855 13.1602C87.6855 12.8281 87.7344 12.5156 87.832 12.2227C87.9297 11.9102 87.998 11.5879 88.0371 11.2559C88.1543 11.1973 88.2227 11.1094 88.2422 10.9922C88.2812 10.8555 88.3203 10.7578 88.3594 10.6992C88.418 10.6211 88.4668 10.5723 88.5059 10.5527C88.5449 10.5137 88.584 10.4746 88.623 10.4355C88.6621 10.377 88.6914 10.3184 88.7109 10.2598C88.7305 10.2012 88.7598 10.1523 88.7988 10.1133C88.8574 10.0547 88.9258 9.99609 89.0039 9.9375C89.1016 9.87891 89.1992 9.81055 89.2969 9.73242C89.3945 9.63477 89.4824 9.54688 89.5605 9.46875C89.6387 9.39062 89.7363 9.32227 89.8535 9.26367C89.9707 9.20508 90.1074 9.15625 90.2637 9.11719C90.4395 9.05859 90.6152 8.98047 90.791 8.88281C91.3574 8.57031 91.9336 8.50195 92.5195 8.67773C92.793 8.75586 92.9688 8.82422 93.0469 8.88281C93.125 8.92188 93.2422 8.9707 93.3984 9.0293C93.5547 9.08789 93.7402 9.13672 93.9551 9.17578C94.1699 9.19531 94.3555 9.24414 94.5117 9.32227C94.6875 9.38086 94.8047 9.45898 94.8633 9.55664C94.9414 9.6543 95.0391 9.75195 95.1562 9.84961C95.1562 10.084 95.293 10.2793 95.5664 10.4355C95.5859 10.5332 95.625 10.6016 95.6836 10.6406C95.7617 10.6797 95.8105 10.748 95.8301 10.8457C95.9473 10.9043 96.0156 10.9824 96.0352 11.0801C96.0547 11.1582 96.123 11.207 96.2402 11.2266C96.3574 11.2461 96.4453 11.2266 96.5039 11.168C96.582 11.1094 96.6895 11.0801 96.8262 11.0801C96.9824 11.0801 97.1387 11.041 97.2949 10.9629C97.4707 10.8848 97.666 10.8652 97.8809 10.9043C98.3887 10.5723 98.8086 10.4551 99.1406 10.5527C99.2773 10.5918 99.4141 10.5918 99.5508 10.5527C99.5508 10.709 99.5996 10.8066 99.6973 10.8457C99.8145 10.8848 99.8926 10.9727 99.9316 11.1094C99.9316 11.5195 99.7754 11.9395 99.4629 12.3691H98.877C98.7988 12.3691 98.7402 12.3984 98.7012 12.457C98.6816 12.4961 98.6328 12.5254 98.5547 12.5449C98.3984 12.4863 98.2324 12.5059 98.0566 12.6035C97.9004 12.7012 97.7637 12.7598 97.6465 12.7793C97.5293 12.7988 97.4316 12.7988 97.3535 12.7793C97.2949 12.7598 97.2168 12.7598 97.1191 12.7793C97.041 12.7988 96.9727 12.8672 96.9141 12.9844C96.8945 13.1406 96.8262 13.2285 96.709 13.248L96.6797 13.4531C96.6992 13.4336 96.6992 13.5117 96.6797 13.6875L96.4453 14.1855C96.1133 14.7715 95.918 15.1719 95.8594 15.3867C95.5859 15.4258 95.3906 15.5625 95.2734 15.7969C95.1562 16.0117 95.0098 16.1875 94.834 16.3242C94.873 16.9102 94.9609 17.291 95.0977 17.4668C95.0781 17.623 95.0684 17.7305 95.0684 17.7891L95.1562 18.3457C95.2344 18.541 95.3418 18.7461 95.4785 18.9609C95.4004 19.0977 95.3906 19.2051 95.4492 19.2832C95.5078 19.3613 95.5469 19.4785 95.5664 19.6348C95.6055 19.7715 95.6152 19.9277 95.5957 20.1035C95.5762 20.2598 95.5859 20.4062 95.625 20.543C95.6641 20.6602 95.7227 20.8066 95.8008 20.9824C95.8789 21.1387 95.918 21.2656 95.918 21.3633C95.918 21.4414 95.9277 21.5586 95.9473 21.7148C95.9863 21.8516 96.0156 22.0273 96.0352 22.2422C96.0742 22.4375 96.1133 22.6035 96.1523 22.7402C96.1914 22.8574 96.2402 22.9355 96.2988 22.9746C96.377 23.0137 96.4355 23.0723 96.4746 23.1504C96.5137 23.209 96.5332 23.2773 96.5332 23.3555C96.5332 23.4141 96.5723 23.4922 96.6504 23.5898C96.748 23.6875 96.8164 23.7656 96.8555 23.8242C96.9141 23.8633 96.9629 23.9121 97.002 23.9707C97.041 24.0098 97.0703 24.0586 97.0898 24.1172C97.1094 24.1953 97.1289 24.2539 97.1484 24.293C97.1875 24.3516 97.2559 24.4102 97.3535 24.4688C97.5684 24.5859 97.7344 24.8008 97.8516 25.1133C97.8906 25.3867 97.9395 25.582 97.998 25.6992C98.0762 25.8164 98.1348 25.9238 98.1738 26.0215C98.2324 26.1387 98.2812 26.2168 98.3203 26.2559C98.3789 26.2949 98.4082 26.3535 98.4082 26.4316L98.291 27.1641L98.4375 27.9844C98.457 28.1992 98.4473 28.4238 98.4082 28.6582C98.3691 28.8926 98.3594 29.0879 98.3789 29.2441C98.3984 29.4199 98.3789 29.5664 98.3203 29.6836C98.2617 29.8008 98.2129 29.9082 98.1738 30.0059C98.1543 30.1035 98.0957 30.2012 97.998 30.2988C97.9004 30.3965 97.832 30.4844 97.793 30.5625C97.7539 30.6406 97.7246 30.709 97.7051 30.7676C97.7051 30.8457 97.6855 30.9238 97.6465 31.002C97.6074 31.0996 97.5684 31.1582 97.5293 31.1777C97.4902 31.1973 97.4512 31.2461 97.4121 31.3242C97.3926 31.4023 97.3535 31.4707 97.2949 31.5293C97.2559 31.5879 97.1973 31.666 97.1191 31.7637C97.0605 31.8809 96.9434 32.0176 96.7676 32.1738C96.5918 32.3496 96.4551 32.5156 96.3574 32.6719C96.0449 32.7305 95.8301 32.8867 95.7129 33.1406C95.5176 33.1797 95.3906 33.1992 95.332 33.1992C95.293 33.1992 95.2246 33.2578 95.127 33.375C95.0293 33.5117 94.8926 33.5996 94.7168 33.6387C94.5605 33.6777 94.4141 33.7461 94.2773 33.8438C93.5156 33.9219 93.0273 34.0293 92.8125 34.166C92.5977 34.127 92.3828 34.1367 92.168 34.1953C91.9531 34.2734 91.5625 34.332 90.9961 34.3711C90.4492 34.4102 90.0684 34.3418 89.8535 34.166C89.6582 34.0098 89.4727 33.9414 89.2969 33.9609C89.1406 33.9805 89.0234 33.9805 88.9453 33.9609C88.8867 33.9414 88.7598 33.8926 88.5645 33.8145C88.3691 33.7559 88.1934 33.7461 88.0371 33.7852C87.9004 33.8242 87.7832 33.7754 87.6855 33.6387C87.5879 33.502 87.5098 33.3457 87.4512 33.1699H87.0703C86.9727 33.0723 86.8652 32.9844 86.748 32.9062C86.6309 32.8281 86.5234 32.75 86.4258 32.6719C86.3281 32.5938 86.2305 32.5156 86.1328 32.4375C86.0352 32.3594 85.9375 32.3008 85.8398 32.2617C85.8008 32.2031 85.791 32.1055 85.8105 31.9688C85.8301 31.832 85.8105 31.7441 85.752 31.7051C85.5371 31.5684 85.4102 31.4512 85.3711 31.3535C85.332 31.2559 85.2539 31.168 85.1367 31.0898C85.0781 30.7188 84.8828 30.3379 84.5508 29.9473C84.5703 29.8496 84.5801 29.752 84.5801 29.6543C84.5801 29.5566 84.5312 29.4883 84.4336 29.4492C84.4727 29.3125 84.4629 29.2148 84.4043 29.1562C84.3457 29.0977 84.3359 29 84.375 28.8633C84.3555 28.7852 84.3262 28.7168 84.2871 28.6582C84.248 28.5996 84.2188 28.5215 84.1992 28.4238C84.1797 28.3457 84.1797 28.248 84.1992 28.1309C84.2188 28.0137 84.2285 27.8965 84.2285 27.7793L84.1113 27.3691L84.1406 26.8125C84.1797 26.4805 84.2188 26.2559 84.2578 26.1387C84.2773 26.041 84.3555 25.9336 84.4922 25.8164C84.6094 25.6992 84.6582 25.543 84.6387 25.3477C84.5996 25.1719 84.6289 25.0742 84.7266 25.0547C84.8242 25.0547 84.873 25.0059 84.873 24.9082C84.9902 24.6934 85.1172 24.5078 85.2539 24.3516C85.3906 24.2148 85.5078 24.0391 85.6055 23.8242C85.8203 23.6875 85.9375 23.6191 85.957 23.6191C86.0352 23.6191 86.1328 23.5312 86.25 23.3555C86.3477 23.1016 86.6016 22.7988 87.0117 22.4473C87.4414 22.0957 87.7734 21.8027 88.0078 21.5684C88.1641 21.627 88.3008 21.6172 88.418 21.5391C88.6133 21.4219 88.7988 21.3633 88.9746 21.3633ZM90.8789 13.3945L90.9082 13.8633C90.9473 14.1367 91.0547 14.3711 91.2305 14.5664C91.4062 14.7422 91.5039 14.9473 91.5234 15.1816C91.6406 15.2598 91.7676 15.3574 91.9043 15.4746C92.041 15.5723 92.1777 15.6309 92.3145 15.6504C92.4707 15.6699 92.6074 15.6602 92.7246 15.6211C92.8418 15.582 92.959 15.543 93.0762 15.5039C93.1738 15.3672 93.2812 15.2695 93.3984 15.2109C93.5352 15.1328 93.6523 15.0352 93.75 14.918C93.8477 14.957 93.9062 14.957 93.9258 14.918C93.9453 14.8594 94.0039 14.8496 94.1016 14.8887C94.1992 14.6348 94.3066 14.4492 94.4238 14.332C94.541 14.1953 94.6191 14.0781 94.6582 13.9805C94.6973 13.8633 94.7656 13.7852 94.8633 13.7461L95.0684 12.3105C94.9902 12.1934 94.9219 12.0469 94.8633 11.8711C94.5508 11.168 94.209 10.8164 93.8379 10.8164C93.7598 10.7188 93.6719 10.6797 93.5742 10.6992C93.4961 10.6992 93.3691 10.6992 93.1934 10.6992C93.1543 10.6016 93.0957 10.5332 93.0176 10.4941C92.9395 10.4355 92.8809 10.3672 92.8418 10.2891C92.627 10.25 92.4219 10.2598 92.2266 10.3184C92.0508 10.3574 91.8262 10.3867 91.5527 10.4062C91.2988 10.582 91.1328 10.7676 91.0547 10.9629C90.9961 11.1387 90.9375 11.3633 90.8789 11.6367C90.8398 11.9102 90.8008 12.0762 90.7617 12.1348C90.7422 12.1934 90.7324 12.252 90.7324 12.3105L90.8789 13.3945ZM96.8555 27.9258L96.8262 27.5742C96.8262 27.418 96.8164 27.2715 96.7969 27.1348C96.7773 27.0176 96.7969 26.9004 96.8555 26.7832C96.8164 26.6465 96.7383 26.5 96.6211 26.3438C96.5234 26.207 96.5137 26.0605 96.5918 25.9043C96.4941 25.8066 96.4355 25.6895 96.416 25.5527C96.3965 25.416 96.3672 25.2695 96.3281 25.1133C96.2109 25.0742 96.123 25.0547 96.0645 25.0547C96.0254 25.0742 95.9766 25.0547 95.918 24.9961C95.8398 24.8594 95.7715 24.7227 95.7129 24.5859C95.5566 24.5273 95.4688 24.4297 95.4492 24.293C95.4492 24.1758 95.3516 24.127 95.1562 24.1465C95.1367 24.0488 95.0586 23.9902 94.9219 23.9707C94.8047 23.9316 94.7266 23.8828 94.6875 23.8242C94.6484 23.7461 94.6191 23.6582 94.5996 23.5605C94.5801 23.4629 94.541 23.375 94.4824 23.2969C94.1895 23.1797 93.9746 23.1309 93.8379 23.1504C93.7207 22.916 93.6035 22.7402 93.4863 22.623C93.2129 22.4473 92.9492 22.3887 92.6953 22.4473C92.4414 22.5059 92.2754 22.5156 92.1973 22.4766C92.1387 22.4375 92.0605 22.418 91.9629 22.418L90.791 22.5645C90.5957 22.623 90.4004 22.6621 90.2051 22.6816C90.0098 22.7012 89.8242 22.7402 89.6484 22.7988C89.668 23.1113 89.5996 23.3066 89.4434 23.3848C89.2871 23.4434 89.1602 23.502 89.0625 23.5605C88.9648 23.5996 88.9062 23.6973 88.8867 23.8535C88.6719 24.0684 88.5254 24.3418 88.4473 24.6738C88.3691 25.0254 88.2617 25.2988 88.125 25.4941C88.0078 25.709 87.9297 25.9238 87.8906 26.1387L87.9492 26.6074L87.8906 26.959L87.9492 27.3398L87.8027 27.9844C87.8027 28.2383 87.8223 28.4043 87.8613 28.4824C87.9199 28.5801 87.959 28.6777 87.9785 28.7754V29.1855C88.0762 29.3613 88.1543 29.5566 88.2129 29.7715C88.291 30.0059 88.3984 30.2012 88.5352 30.3574C88.4961 30.4551 88.5156 30.543 88.5938 30.6211C88.6719 30.7188 88.7207 30.8457 88.7402 31.002C88.7793 31.1777 88.8281 31.3242 88.8867 31.4414C88.9648 31.5586 89.0625 31.6758 89.1797 31.793C89.3164 31.9102 89.4336 32.0566 89.5312 32.2324C89.668 32.2324 89.7754 32.2715 89.8535 32.3496C89.9512 32.4473 90.0781 32.5254 90.2344 32.584C90.3906 32.6426 90.4785 32.6816 90.498 32.7012C90.5176 32.7402 90.5664 32.7695 90.6445 32.7891C90.7227 32.8086 90.8008 32.8086 90.8789 32.7891C90.9766 32.7891 91.0645 32.8184 91.1426 32.877C91.2402 32.9551 91.3574 32.9746 91.4941 32.9355C91.6504 32.916 91.7773 32.9062 91.875 32.9062C91.9727 32.9062 92.0508 32.9258 92.1094 32.9648C92.168 33.0039 92.2852 32.9746 92.4609 32.877C92.6367 32.7793 92.8125 32.75 92.9883 32.7891C93.1641 32.8281 93.291 32.8379 93.3691 32.8184C93.4668 32.7988 93.5645 32.7598 93.6621 32.7012C93.7598 32.6621 93.8867 32.6035 94.043 32.5254C94.2188 32.4473 94.3457 32.3984 94.4238 32.3789C94.502 32.3789 94.5703 32.3496 94.6289 32.291C94.707 32.252 94.7754 32.1641 94.834 32.0273C94.8926 31.8906 94.9805 31.793 95.0977 31.7344C95.1562 31.7148 95.1953 31.6855 95.2148 31.6465C95.2539 31.6074 95.3223 31.5977 95.4199 31.6172C95.459 31.5 95.5273 31.4023 95.625 31.3242C95.9375 31.1289 96.1914 30.875 96.3867 30.5625C96.4258 30.5234 96.4551 30.4453 96.4746 30.3281C96.5137 30.2305 96.582 30.1035 96.6797 29.9473C96.7773 29.8105 96.8262 29.6738 96.8262 29.5371L96.9727 29.0684C96.9531 29.0684 96.9531 28.9805 96.9727 28.8047C97.0117 28.6484 97.002 28.502 96.9434 28.3652C96.9043 28.2285 96.875 28.082 96.8555 27.9258ZM108.34 13.248C108.223 13.6777 108.193 14.0195 108.252 14.2734C108.232 14.5469 108.184 14.7129 108.105 14.7715C108.047 14.8301 107.969 14.9082 107.871 15.0059C107.871 15.084 107.871 15.1719 107.871 15.2695C107.891 15.3477 107.871 15.4062 107.812 15.4453C107.441 15.4258 107.07 15.416 106.699 15.416C106.348 15.3965 106.045 15.4551 105.791 15.5918C105.693 15.6113 105.625 15.6113 105.586 15.5918C105.547 15.5527 105.498 15.5234 105.439 15.5039C105.342 15.543 105.215 15.6113 105.059 15.709C104.922 15.8066 104.785 15.8262 104.648 15.7676C104.512 15.709 104.365 15.6992 104.209 15.7383C103.643 15.9336 103.281 16.1289 103.125 16.3242C103.145 16.5391 103.145 16.7539 103.125 16.9688C103.105 17.1641 103.115 17.3496 103.154 17.5254L103.213 17.9062C103.232 17.9844 103.223 18.0527 103.184 18.1113C103.164 18.1699 103.154 18.248 103.154 18.3457C103.154 18.4238 103.174 18.5215 103.213 18.6387C103.271 18.7363 103.262 18.834 103.184 18.9316C103.223 19.0293 103.262 19.127 103.301 19.2246C103.34 19.3223 103.34 19.4492 103.301 19.6055C103.32 19.7031 103.35 19.7812 103.389 19.8398C103.428 19.8789 103.457 19.9473 103.477 20.0449C103.516 20.1426 103.525 20.2695 103.506 20.4258C103.506 20.5625 103.516 20.6797 103.535 20.7773C103.574 20.875 103.604 20.9922 103.623 21.1289C103.662 21.2461 103.76 21.4023 103.916 21.5977C104.072 21.793 104.121 21.9492 104.062 22.0664C104.16 22.1641 104.238 22.2617 104.297 22.3594C104.375 22.457 104.463 22.5449 104.561 22.623C104.736 22.6426 104.893 22.6914 105.029 22.7695C105.186 22.8477 105.371 22.8867 105.586 22.8867C105.82 22.8867 106.084 22.7988 106.377 22.623C106.689 22.4277 106.895 22.3105 106.992 22.2715C107.051 22.2324 107.08 22.1641 107.08 22.0664C107.1 21.9492 107.139 21.8711 107.197 21.832C107.256 21.7734 107.305 21.7441 107.344 21.7441C107.402 21.7246 107.471 21.6953 107.549 21.6562C107.646 21.5977 107.734 21.5391 107.812 21.4805C107.891 21.4023 107.998 21.3242 108.135 21.2461C108.271 21.168 108.457 21.2168 108.691 21.3926C108.75 21.627 108.75 21.793 108.691 21.8906C108.633 21.9883 108.574 22.0859 108.516 22.1836C108.457 22.2812 108.447 22.3496 108.486 22.3887C108.525 22.4082 108.535 22.4668 108.516 22.5645C108.398 22.6816 108.34 22.8086 108.34 22.9453C108.223 22.9844 108.135 23.0625 108.076 23.1797C108.018 23.2773 107.93 23.3652 107.812 23.4434C107.695 23.502 107.578 23.541 107.461 23.5605C107.363 23.5605 107.246 23.5996 107.109 23.6777C106.992 23.7363 106.895 23.8242 106.816 23.9414C106.738 24.0391 106.611 24.1367 106.436 24.2344C106.338 24.2148 106.201 24.2051 106.025 24.2051C105.693 24.4004 105.342 24.4688 104.971 24.4102C104.619 24.3711 104.238 24.332 103.828 24.293C103.516 23.9805 103.164 23.7559 102.773 23.6191C102.617 23.2285 102.305 22.9746 101.836 22.8574C101.836 22.7402 101.787 22.6621 101.689 22.623C101.611 22.584 101.572 22.4863 101.572 22.3301C101.475 22.3105 101.406 22.2617 101.367 22.1836C101.348 22.1055 101.289 22.0469 101.191 22.0078C101.172 21.9492 101.143 21.9102 101.104 21.8906C101.084 21.8516 101.084 21.7832 101.104 21.6855C101.006 21.6465 100.928 21.5879 100.869 21.5098C100.83 21.4121 100.771 21.3145 100.693 21.2168C100.557 20.9434 100.469 20.7578 100.43 20.6602C100.41 20.5625 100.352 20.3965 100.254 20.1621C100.156 19.9277 100.117 19.6641 100.137 19.3711L99.9023 18.873C99.9414 18.7754 99.9414 18.6777 99.9023 18.5801C99.8828 18.4629 99.873 18.3457 99.873 18.2285L99.9316 17.7891C99.9512 17.5742 99.9512 17.3496 99.9316 17.1152C99.9121 16.8613 99.9219 16.6367 99.9609 16.4414L100.049 16.0898C100.068 16.0117 100.068 15.9434 100.049 15.8848C100.049 15.8066 100.068 15.6992 100.107 15.5625C100.166 15.4062 100.234 15.2305 100.312 15.0352C100.391 14.8398 100.43 14.7031 100.43 14.625C100.449 14.5469 100.479 14.4492 100.518 14.332C100.557 14.2148 100.605 14.1074 100.664 14.0098C100.723 13.9121 100.771 13.8145 100.811 13.7168C100.869 13.5996 100.898 13.502 100.898 13.4238C100.898 13.3262 100.938 13.2383 101.016 13.1602C101.113 13.0625 101.182 12.9844 101.221 12.9258C101.26 12.8672 101.299 12.8086 101.338 12.75C101.396 12.6914 101.445 12.6328 101.484 12.5742C101.523 12.3984 101.602 12.2617 101.719 12.1641C101.855 12.0469 101.914 11.9102 101.895 11.7539C101.992 11.7539 102.051 11.7148 102.07 11.6367C102.09 11.5586 102.168 11.4805 102.305 11.4023C102.441 11.3047 102.529 11.2363 102.568 11.1973C102.607 11.1582 102.715 11.0801 102.891 10.9629C103.086 10.8457 103.232 10.6699 103.33 10.4355C103.428 10.5137 103.486 10.543 103.506 10.5234C103.545 10.4844 103.613 10.4355 103.711 10.377C103.809 10.3184 103.887 10.2891 103.945 10.2891C104.004 10.2891 104.082 10.2598 104.18 10.2012C104.297 10.123 104.395 10.0938 104.473 10.1133C104.57 10.1328 104.658 10.1133 104.736 10.0547C105.01 9.97656 105.254 9.95703 105.469 9.99609C105.684 10.0156 105.898 9.99609 106.113 9.9375C106.211 9.97656 106.279 10.0449 106.318 10.1426C106.377 10.2402 106.436 10.3184 106.494 10.377C106.572 10.4355 106.641 10.4746 106.699 10.4941C106.758 10.5137 106.836 10.5625 106.934 10.6406C107.031 10.7188 107.1 10.7773 107.139 10.8164C107.178 10.8359 107.217 10.8848 107.256 10.9629C107.295 11.0215 107.344 11.0898 107.402 11.168C107.48 11.2266 107.549 11.3145 107.607 11.4316C107.686 11.5488 107.754 11.7051 107.812 11.9004C107.871 12.0957 107.959 12.2812 108.076 12.457C108.037 12.6133 108.047 12.7305 108.105 12.8086C108.125 12.9062 108.154 12.9844 108.193 13.043C108.252 13.1016 108.301 13.1699 108.34 13.248ZM105.088 14.5078L105.469 14.4199C105.625 14.3809 105.781 14.3613 105.938 14.3613C106.113 14.3418 106.279 14.3027 106.436 14.2441C106.475 13.7949 106.426 13.4336 106.289 13.1602C106.348 13.0234 106.328 12.8965 106.23 12.7793C106.133 12.6426 106.094 12.4863 106.113 12.3105C105.898 12.0957 105.771 11.9785 105.732 11.959C105.732 11.8418 105.713 11.7539 105.674 11.6953C105.635 11.6367 105.596 11.5684 105.557 11.4902C105.459 11.4512 105.361 11.4316 105.264 11.4316C105.166 11.4121 105.088 11.373 105.029 11.3145C104.658 11.6855 104.238 11.8906 103.77 11.9297C103.789 12.1836 103.721 12.418 103.564 12.6328C103.545 12.7109 103.535 12.7891 103.535 12.8672V13.043C103.438 13.1211 103.389 13.248 103.389 13.4238C103.408 13.5801 103.369 13.7559 103.271 13.9512C103.174 14.127 103.145 14.3027 103.184 14.4785C103.457 14.5176 103.711 14.5273 103.945 14.5078C104.18 14.4688 104.404 14.4492 104.619 14.4492L105.088 14.5078Z" fill="white"/>
</svg>
